<svg width="400" height="400" viewBox="0 0 400 400" fill="none" xmlns="http://www.w3.org/2000/svg">
<rect width="400" height="400" fill="#1B1B1B"/>
<path d="M109.182 236.824C109.182 234.419 109.401 232.369 109.838 230.674C110.33 228.979 111.123 227.503 112.216 226.246C113.309 224.989 114.785 223.813 116.644 222.72C118.557 221.627 120.963 220.451 123.86 219.194C119.76 216.406 116.507 212.907 114.102 208.698C111.751 204.434 110.576 199.815 110.576 194.84C110.576 192.708 111.15 191.041 112.298 189.838C113.501 188.635 115.551 187.815 118.448 187.378C121.4 186.886 125.473 186.64 130.666 186.64C135.914 186.64 139.987 186.886 142.884 187.378C145.781 187.815 147.804 188.635 148.952 189.838C150.155 191.041 150.756 192.708 150.756 194.84C150.756 198.557 150.209 201.865 149.116 204.762C148.023 207.659 146.547 210.201 144.688 212.388C142.884 214.52 140.861 216.406 138.62 218.046C139.877 218.21 141.135 218.347 142.392 218.456C143.704 218.565 145.071 218.62 146.492 218.62H157.972V226H146.492C143.649 226 140.861 225.754 138.128 225.262C135.449 224.715 132.907 223.977 130.502 223.048C127.987 224.032 125.637 225.016 123.45 226C121.263 227.039 119.487 228.023 118.12 228.952C116.808 229.936 116.152 230.893 116.152 231.822V243.876C117.628 244.095 119.323 244.259 121.236 244.368C123.149 244.532 125.309 244.614 127.714 244.614C129.627 244.614 131.623 244.477 133.7 244.204C135.777 243.931 138.401 243.466 141.572 242.81L142.638 250.026C140.834 250.682 138.483 251.174 135.586 251.502C132.743 251.83 129.354 251.994 125.418 251.994C122.247 251.994 119.596 251.748 117.464 251.256C115.387 250.819 113.719 250.026 112.462 248.878C111.259 247.73 110.412 246.172 109.92 244.204C109.428 242.236 109.182 239.776 109.182 236.824ZM117.136 194.02C117.136 198.284 117.765 201.892 119.022 204.844C120.279 207.796 121.947 210.229 124.024 212.142C126.101 214.001 128.315 215.477 130.666 216.57C135.094 214.547 138.456 211.623 140.752 207.796C143.048 203.969 144.196 199.377 144.196 194.02H117.136ZM130.666 177.62C130.119 177.62 129.491 177.374 128.78 176.882C128.069 176.39 127.441 175.789 126.894 175.078C126.402 174.313 126.156 173.657 126.156 173.11C126.156 172.509 126.402 171.88 126.894 171.224C127.441 170.513 128.069 169.912 128.78 169.42C129.491 168.873 130.119 168.6 130.666 168.6C131.267 168.6 131.896 168.873 132.552 169.42C133.263 169.912 133.864 170.513 134.356 171.224C134.903 171.88 135.176 172.509 135.176 173.11C135.176 173.657 134.903 174.285 134.356 174.996C133.864 175.707 133.263 176.335 132.552 176.882C131.841 177.374 131.213 177.62 130.666 177.62ZM154.69 226V218.62H177.978V226H154.69ZM249.98 241.662V237.48L265.888 233.216V237.398L249.98 241.662ZM276.245 177.948V173.766L292.153 169.502V173.684L276.245 177.948Z" fill="#818283"/>
<path d="M195.21 226V218.62H218.498V226H195.21ZM234.909 218.62H244.749V226H215.229V218.62H228.349V187.46H234.909V218.62ZM225.315 241.58C224.768 241.58 224.14 241.334 223.429 240.842C222.718 240.35 222.09 239.721 221.543 238.956C221.051 238.245 220.805 237.617 220.805 237.07C220.805 236.469 221.051 235.813 221.543 235.102C222.09 234.446 222.718 233.845 223.429 233.298C224.14 232.806 224.768 232.56 225.315 232.56C225.916 232.56 226.545 232.806 227.201 233.298C227.912 233.845 228.513 234.446 229.005 235.102C229.552 235.813 229.825 236.469 229.825 237.07C229.825 237.617 229.552 238.245 229.005 238.956C228.513 239.667 227.912 240.268 227.201 240.76C226.49 241.307 225.862 241.58 225.315 241.58ZM237.123 241.58C236.576 241.58 235.948 241.334 235.237 240.842C234.526 240.35 233.898 239.721 233.351 238.956C232.859 238.245 232.613 237.617 232.613 237.07C232.613 236.469 232.859 235.813 233.351 235.102C233.898 234.446 234.526 233.845 235.237 233.298C235.948 232.806 236.576 232.56 237.123 232.56C237.724 232.56 238.353 232.806 239.009 233.298C239.72 233.845 240.321 234.446 240.813 235.102C241.36 235.813 241.633 236.469 241.633 237.07C241.633 237.617 241.36 238.245 240.813 238.956C240.321 239.667 239.72 240.268 239.009 240.76C238.298 241.307 237.67 241.58 237.123 241.58ZM261.175 218.62H271.015V226H241.495V218.62H254.615V174.34H261.175V218.62ZM267.76 226V218.62H280.88V187.46H287.44V226H267.76ZM284.16 241.58C283.614 241.58 282.985 241.334 282.274 240.842C281.564 240.35 280.935 239.721 280.388 238.956C279.896 238.245 279.65 237.617 279.65 237.07C279.65 236.469 279.896 235.813 280.388 235.102C280.935 234.446 281.564 233.845 282.274 233.298C282.985 232.806 283.614 232.56 284.16 232.56C284.762 232.56 285.39 232.806 286.046 233.298C286.757 233.845 287.358 234.446 287.85 235.102C288.397 235.813 288.67 236.469 288.67 237.07C288.67 237.617 288.397 238.245 287.85 238.956C287.358 239.667 286.757 240.268 286.046 240.76C285.336 241.307 284.707 241.58 284.16 241.58Z" fill="#FAF9F7"/>
<path d="M194.1 253.5L194.537 253.258L194.395 253H194.1V253.5ZM197.188 253.963L196.892 254.366L197.188 253.963ZM198.463 254.21L198.75 254.619L198.463 254.21ZM198.888 253.911L198.6 253.502L198.888 253.911ZM199.313 253.591L198.999 253.201L199.313 253.591ZM199.738 253.249L200.051 253.638L199.738 253.249ZM200.163 253.418L199.739 253.683L200.163 253.418ZM200.588 254.097L201.011 253.832L200.588 254.097ZM201.013 254.06L200.577 253.814L201.013 254.06ZM201.438 253.308L201.873 253.554L201.438 253.308ZM202.288 252.986L202.245 253.484L202.288 252.986ZM203.563 252.548L203.826 252.123L203.563 252.548ZM203.775 252.68L204.039 252.255L203.775 252.68ZM203.988 252.812L203.724 253.236L203.988 252.812ZM204.413 252.987L204.512 252.497L204.413 252.987ZM204.625 253.03L204.526 253.52L204.625 253.03ZM204.838 253.073L204.738 253.563L204.838 253.073ZM205.263 252.883L205.632 253.22L205.263 252.883ZM205.688 252.418L205.318 252.081L205.688 252.418ZM206.325 252.178L206.334 252.678L206.325 252.178ZM206.537 252.174L206.529 251.674L206.537 252.174ZM206.962 252.49L206.546 252.767L206.962 252.49ZM208.663 253.837L208.539 253.352L208.663 253.837ZM209.088 253.728L209.211 254.213L209.088 253.728ZM209.512 253.531L209.233 253.117L209.512 253.531ZM209.938 253.245L209.658 252.83L209.938 253.245ZM210.362 253.327L209.999 253.67L210.362 253.327ZM210.575 253.552L210.939 253.21L210.575 253.552ZM210.788 253.778L211.151 253.435L210.788 253.778ZM212.913 253.042L213.345 252.79L212.913 253.042ZM213.338 253.771L212.905 254.023L213.338 253.771ZM214.613 253.234L215.001 252.919L214.613 253.234ZM215.038 253.759L214.649 254.074L215.038 253.759ZM215.463 253.702L215.879 253.979L215.463 253.702ZM215.675 253.382L215.258 253.105L215.675 253.382ZM216.312 253.065L216.73 252.791L216.312 253.065ZM216.738 253.712L216.32 253.987L216.738 253.712ZM217.163 253.577L217.616 253.787L217.163 253.577ZM217.375 253.118L216.921 252.908L217.375 253.118ZM218.863 253.403L218.609 253.834L218.863 253.403ZM219.075 253.528L218.822 253.959L219.075 253.528ZM219.288 253.652L219.541 253.221L219.288 253.652ZM220.562 252.333L220.501 252.829L220.562 252.333ZM220.775 252.359L220.837 251.863L220.775 252.359ZM220.988 252.386L221.049 251.89L220.988 252.386ZM223.113 253.818L222.71 254.115L223.113 253.818ZM223.538 254.394L223.94 254.097L223.538 254.394ZM224.388 253.074L223.923 252.89L224.388 253.074ZM224.812 252.772L224.442 253.109L224.812 252.772ZM225.663 253.661L225.332 254.036L225.663 253.661ZM226.087 254.035L225.757 254.41L226.087 254.035ZM226.513 253.843L226.076 253.599L226.513 253.843ZM226.938 253.086L227.374 253.33L226.938 253.086ZM227.363 252.999L227.767 252.705L227.363 252.999ZM227.788 253.584L227.383 253.878L227.788 253.584ZM228.213 254.106L227.845 254.446L228.213 254.106ZM228.638 254.566L229.005 254.226L228.638 254.566ZM229.063 254.3L229.522 254.498L229.063 254.3ZM229.488 253.31L229.028 253.113L229.488 253.31ZM229.913 253.205L230.351 252.965L229.913 253.205ZM230.125 253.594L230.564 253.355L230.125 253.594ZM230.338 253.984L229.899 254.223L230.338 253.984ZM230.763 254.406L230.688 254.9L230.763 254.406ZM231.188 254.47L231.262 253.975L231.188 254.47ZM231.613 254.487L231.648 254.986L231.613 254.487ZM232.038 254.457L232.002 253.958L232.038 254.457ZM232.463 254.41L232.388 253.916L232.463 254.41ZM235.013 253.651L235.127 254.138L235.013 253.651ZM235.438 253.552L235.323 253.065L235.438 253.552ZM238.838 254.66L238.692 255.138L238.838 254.66ZM239.263 254.118L239.734 254.283L239.263 254.118ZM239.688 252.904L239.216 252.738L239.688 252.904ZM240.112 252.794L239.653 252.99L240.112 252.794ZM240.538 253.789L240.078 253.985L240.538 253.789ZM244.363 253.422L244.209 252.946L244.363 253.422ZM244.787 253.285L244.941 253.761L244.787 253.285ZM245.213 253.091L245.467 253.521L245.213 253.091ZM245.425 252.965L245.17 252.534L245.425 252.965ZM245.638 252.839L245.383 252.409L245.638 252.839ZM246.063 252.753L245.972 253.244L246.063 252.753ZM246.275 252.792L246.366 252.3L246.275 252.792ZM246.488 252.831L246.578 252.339L246.488 252.831ZM249.463 253.522L249.27 253.984L249.463 253.522ZM251.588 253.132L251.131 252.929L251.588 253.132ZM252.013 252.701L251.906 253.189L252.013 252.701ZM252.438 252.794L252.544 252.305L252.438 252.794ZM253.075 252.636L252.859 252.186L253.075 252.636ZM254.562 253.596L254.323 254.035L254.562 253.596ZM257.113 253.217L256.814 253.618L257.113 253.217ZM257.963 253.716L257.904 254.212L257.963 253.716ZM258.387 253.766L258.329 254.263L258.387 253.766ZM258.812 253.524L258.421 253.213L258.812 253.524ZM259.238 252.989L259.629 253.3L259.238 252.989ZM260.088 252.591L259.987 252.101L260.088 252.591ZM260.513 252.453L260.716 252.91L260.513 252.453ZM260.725 252.358L260.522 251.902L260.725 252.358ZM260.938 252.264L260.734 251.807L260.938 252.264ZM263.062 252.774L262.881 252.309L263.062 252.774ZM263.488 252.608L263.669 253.074L263.488 252.608ZM263.913 252.694L264.223 252.302L263.913 252.694ZM264.125 252.862L263.814 253.254L264.125 252.862ZM264.338 253.031L264.027 253.422L264.338 253.031ZM265.613 253.847L265.686 254.342L265.613 253.847ZM266.037 253.784L265.964 253.29L266.037 253.784ZM267.312 254.024L267 253.634L267.312 254.024ZM267.738 253.684L268.05 254.074L267.738 253.684ZM269.013 253.654L269.41 253.351L269.013 253.654ZM269.438 254.212L269.04 254.515L269.438 254.212ZM270.713 253.505L271.123 253.219L270.713 253.505ZM271.137 254.115L270.727 254.4L271.137 254.115ZM271.562 254.133L271.161 253.835L271.562 254.133ZM271.988 253.561L272.389 253.859L271.988 253.561ZM272.625 252.792L272.25 252.462L272.625 252.792ZM273.475 252.944L273.06 253.222L273.475 252.944ZM274.113 253.519L274.245 254.001L274.113 253.519ZM274.537 253.403L274.406 252.921L274.537 253.403ZM274.963 253.368L274.907 253.865L274.963 253.368ZM275.388 253.416L275.443 252.919L275.388 253.416ZM276.238 253.171L276.044 252.711L276.238 253.171ZM276.663 253.254L276.977 252.866L276.663 253.254ZM277.088 253.599L276.773 253.987L277.088 253.599ZM279.213 253.105L278.808 253.399L279.213 253.105ZM279.638 253.69L280.042 253.395L279.638 253.69ZM280.063 253.849L280.327 254.273L280.063 253.849ZM280.488 253.584L280.223 253.16L280.488 253.584ZM280.913 253.455L280.904 253.954L280.913 253.455ZM281.763 253.221L281.386 252.893L281.763 253.221ZM281.975 252.977L281.598 252.649L281.975 252.977ZM282.613 252.611L282.861 252.177L282.613 252.611ZM282.825 252.733L282.577 253.167L282.825 252.733ZM283.037 252.854L282.789 253.288L283.037 252.854ZM283.463 253.407L283.014 253.628L283.463 253.407ZM283.888 254.271L284.336 254.05L283.888 254.271ZM285.163 253.892L285.551 253.577L285.163 253.892ZM285.588 254.417L285.199 254.731L285.588 254.417ZM285.85 254.384L285.357 254.301L285.85 254.384ZM285.9 254.09L286.393 254.173L286.4 254.132V254.09L285.9 254.09ZM285.9 253.5V253H285.4V253.5L285.9 253.5ZM194 253.5V254H194.1V253.5V253H194V253.5ZM194.1 253.5L193.663 253.742L194.038 254.42L194.475 254.178L194.912 253.936L194.537 253.258L194.1 253.5ZM194.475 254.178L194.038 254.42C194.169 254.658 194.302 254.863 194.436 255.014C194.503 255.089 194.584 255.168 194.682 255.229C194.78 255.289 194.924 255.351 195.1 255.338L195.062 254.839L195.025 254.341C195.13 254.333 195.197 254.371 195.21 254.379C195.223 254.388 195.214 254.385 195.183 254.35C195.121 254.28 195.031 254.149 194.912 253.936L194.475 254.178ZM195.062 254.839L195.1 255.338L195.313 255.322L195.275 254.823L195.237 254.325L195.025 254.341L195.062 254.839ZM195.275 254.823L195.313 255.322L195.525 255.306L195.488 254.807L195.45 254.308L195.237 254.325L195.275 254.823ZM195.488 254.807L195.525 255.306C195.911 255.276 196.17 254.987 196.33 254.742L195.913 254.467L195.495 254.193C195.441 254.274 195.404 254.31 195.388 254.323C195.374 254.335 195.396 254.312 195.45 254.308L195.488 254.807ZM195.913 254.467L196.33 254.742L196.543 254.418L196.125 254.144L195.707 253.869L195.495 254.193L195.913 254.467ZM196.125 254.144L196.543 254.418L196.755 254.094L196.338 253.82L195.92 253.545L195.707 253.869L196.125 254.144ZM196.338 253.82L196.755 254.094C196.776 254.063 196.789 254.05 196.79 254.049C196.791 254.047 196.774 254.065 196.734 254.081C196.69 254.098 196.633 254.107 196.573 254.097C196.517 254.087 196.481 254.065 196.467 254.055L196.763 253.652L197.058 253.248C196.873 253.113 196.623 253.049 196.366 253.151C196.153 253.235 196.012 253.405 195.92 253.545L196.338 253.82ZM196.763 253.652L196.467 254.055L196.68 254.211L196.975 253.807L197.27 253.404L197.058 253.248L196.763 253.652ZM196.975 253.807L196.68 254.211L196.892 254.366L197.188 253.963L197.483 253.559L197.27 253.404L196.975 253.807ZM197.188 253.963L196.892 254.366C197.073 254.498 197.267 254.6 197.476 254.66L197.612 254.179L197.749 253.698C197.674 253.676 197.586 253.634 197.483 253.559L197.188 253.963ZM197.612 254.179L197.476 254.66L197.688 254.72L197.825 254.239L197.962 253.758L197.749 253.698L197.612 254.179ZM197.825 254.239L197.688 254.72L197.901 254.78L198.037 254.299L198.174 253.819L197.962 253.758L197.825 254.239ZM198.037 254.299L197.901 254.78C198.214 254.869 198.51 254.789 198.75 254.619L198.463 254.21L198.175 253.801C198.149 253.82 198.14 253.82 198.147 253.818C198.151 253.817 198.156 253.817 198.162 253.817C198.168 253.817 198.173 253.818 198.174 253.819L198.037 254.299ZM198.463 254.21L198.75 254.619L198.963 254.469L198.675 254.061L198.387 253.652L198.175 253.801L198.463 254.21ZM198.675 254.061L198.963 254.469L199.175 254.32L198.888 253.911L198.6 253.502L198.387 253.652L198.675 254.061ZM198.888 253.911L199.175 254.32C199.326 254.214 199.476 254.1 199.626 253.98L199.313 253.591L198.999 253.201C198.865 253.308 198.732 253.409 198.6 253.502L198.888 253.911ZM199.313 253.591L199.626 253.98L199.838 253.809L199.525 253.42L199.212 253.03L198.999 253.201L199.313 253.591ZM199.525 253.42L199.838 253.809L200.051 253.638L199.738 253.249L199.424 252.859L199.212 253.03L199.525 253.42ZM199.738 253.249L200.051 253.638C200.04 253.647 200.004 253.673 199.943 253.685C199.878 253.698 199.815 253.69 199.765 253.67C199.743 253.661 199.727 253.652 199.717 253.645C199.712 253.641 199.709 253.638 199.706 253.637C199.705 253.636 199.704 253.635 199.704 253.634C199.703 253.634 199.703 253.634 199.703 253.634C199.703 253.634 199.703 253.634 199.704 253.634C199.704 253.635 199.705 253.636 199.706 253.637C199.708 253.639 199.71 253.642 199.713 253.646C199.72 253.654 199.728 253.666 199.739 253.683L200.163 253.418L200.586 253.152C200.497 253.009 200.355 252.828 200.135 252.741C199.861 252.632 199.603 252.715 199.424 252.859L199.738 253.249ZM200.163 253.418L199.739 253.683L199.951 254.022L200.375 253.757L200.799 253.492L200.586 253.152L200.163 253.418ZM200.375 253.757L199.951 254.022L200.164 254.362L200.588 254.097L201.011 253.832L200.799 253.492L200.375 253.757ZM200.588 254.097L200.164 254.362C200.246 254.495 200.464 254.788 200.843 254.756C201.023 254.74 201.158 254.652 201.246 254.57C201.333 254.49 201.398 254.394 201.448 254.306L201.013 254.06L200.577 253.814C200.556 253.852 200.55 253.852 200.566 253.837C200.583 253.821 200.648 253.769 200.757 253.759C200.873 253.749 200.958 253.795 200.995 253.823C201.026 253.847 201.029 253.86 201.011 253.832L200.588 254.097ZM201.013 254.06L201.448 254.306L201.66 253.93L201.225 253.684L200.79 253.438L200.577 253.814L201.013 254.06ZM201.225 253.684L201.66 253.93L201.873 253.554L201.438 253.308L201.002 253.062L200.79 253.438L201.225 253.684ZM201.438 253.308L201.873 253.554C201.899 253.507 201.922 253.472 201.941 253.448C201.96 253.424 201.971 253.414 201.972 253.412C201.974 253.411 201.961 253.422 201.933 253.433C201.904 253.444 201.864 253.451 201.82 253.448L201.863 252.95L201.905 252.451C201.665 252.431 201.468 252.53 201.328 252.648C201.193 252.761 201.088 252.91 201.002 253.062L201.438 253.308ZM201.863 252.95L201.82 253.448L202.033 253.466L202.075 252.968L202.117 252.469L201.905 252.451L201.863 252.95ZM202.075 252.968L202.033 253.466L202.245 253.484L202.288 252.986L202.33 252.487L202.117 252.469L202.075 252.968ZM202.288 252.986L202.245 253.484C202.526 253.508 202.781 253.417 202.997 253.268L202.713 252.857L202.428 252.445C202.361 252.492 202.333 252.488 202.33 252.487L202.288 252.986ZM202.713 252.857L202.997 253.268L203.209 253.121L202.925 252.71L202.641 252.298L202.428 252.445L202.713 252.857ZM202.925 252.71L203.209 253.121L203.422 252.974L203.138 252.563L202.853 252.151L202.641 252.298L202.925 252.71ZM203.138 252.563L203.422 252.974C203.431 252.967 203.411 252.983 203.368 252.985C203.323 252.987 203.297 252.971 203.299 252.972L203.563 252.548L203.826 252.123C203.687 252.036 203.519 251.979 203.332 251.986C203.147 251.992 202.985 252.06 202.853 252.151L203.138 252.563ZM203.563 252.548L203.299 252.972L203.511 253.104L203.775 252.68L204.039 252.255L203.826 252.123L203.563 252.548ZM203.775 252.68L203.511 253.104L203.724 253.236L203.988 252.812L204.251 252.387L204.039 252.255L203.775 252.68ZM203.988 252.812L203.724 253.236C203.908 253.351 204.105 253.435 204.313 253.477L204.413 252.987L204.512 252.497C204.437 252.482 204.35 252.448 204.251 252.387L203.988 252.812ZM204.413 252.987L204.313 253.477L204.526 253.52L204.625 253.03L204.724 252.54L204.512 252.497L204.413 252.987ZM204.625 253.03L204.526 253.52L204.738 253.563L204.838 253.073L204.937 252.583L204.724 252.54L204.625 253.03ZM204.838 253.073L204.738 253.563C205.123 253.64 205.43 253.441 205.632 253.22L205.263 252.883L204.893 252.546C204.874 252.567 204.86 252.579 204.851 252.586C204.842 252.593 204.841 252.593 204.846 252.59C204.852 252.587 204.865 252.583 204.883 252.581C204.902 252.578 204.92 252.579 204.937 252.583L204.838 253.073ZM205.263 252.883L205.632 253.22L205.844 252.988L205.475 252.65L205.106 252.313L204.893 252.546L205.263 252.883ZM205.475 252.65L205.844 252.988L206.057 252.755L205.688 252.418L205.318 252.081L205.106 252.313L205.475 252.65ZM205.688 252.418L206.057 252.755C206.101 252.706 206.131 252.686 206.143 252.679C206.153 252.674 206.144 252.681 206.121 252.681L206.113 252.181L206.104 251.681C205.77 251.687 205.508 251.873 205.318 252.081L205.688 252.418ZM206.113 252.181L206.121 252.681L206.334 252.678L206.325 252.178L206.316 251.678L206.104 251.681L206.113 252.181ZM206.325 252.178L206.334 252.678L206.546 252.674L206.537 252.174L206.529 251.674L206.316 251.678L206.325 252.178ZM206.537 252.174L206.546 252.674C206.517 252.674 206.491 252.669 206.473 252.662C206.456 252.656 206.448 252.65 206.451 252.652C206.454 252.654 206.465 252.663 206.482 252.682C206.5 252.702 206.521 252.729 206.546 252.767L206.962 252.49L207.379 252.214C207.218 251.971 206.943 251.666 206.529 251.674L206.537 252.174ZM206.962 252.49L206.546 252.767L206.758 253.087L207.175 252.811L207.592 252.534L207.379 252.214L206.962 252.49ZM207.175 252.811L206.758 253.087L206.971 253.407L207.387 253.131L207.804 252.855L207.592 252.534L207.175 252.811ZM207.387 253.131L206.971 253.407C207.134 253.653 207.333 253.876 207.583 254.005L207.812 253.561L208.042 253.117C208.009 253.1 207.924 253.036 207.804 252.855L207.387 253.131ZM207.812 253.561L207.583 254.005L207.796 254.115L208.025 253.671L208.254 253.227L208.042 253.117L207.812 253.561ZM208.025 253.671L207.796 254.115L208.008 254.225L208.238 253.781L208.467 253.337L208.254 253.227L208.025 253.671ZM208.238 253.781L208.008 254.225C208.248 254.349 208.514 254.39 208.786 254.321L208.663 253.837L208.539 253.352C208.527 253.355 208.511 253.359 208.467 253.337L208.238 253.781ZM208.663 253.837L208.786 254.321L208.998 254.267L208.875 253.783L208.752 253.298L208.539 253.352L208.663 253.837ZM208.875 253.783L208.998 254.267L209.211 254.213L209.088 253.728L208.964 253.244L208.752 253.298L208.875 253.783ZM209.088 253.728L209.211 254.213C209.417 254.161 209.611 254.068 209.792 253.946L209.512 253.531L209.233 253.117C209.131 253.185 209.042 253.224 208.964 253.244L209.088 253.728ZM209.512 253.531L209.792 253.946L210.005 253.802L209.725 253.388L209.445 252.973L209.233 253.117L209.512 253.531ZM209.725 253.388L210.005 253.802L210.217 253.659L209.938 253.245L209.658 252.83L209.445 252.973L209.725 253.388ZM209.938 253.245L210.217 253.659C210.211 253.663 210.192 253.674 210.161 253.682C210.127 253.69 210.09 253.691 210.055 253.684C209.987 253.671 209.97 253.639 209.999 253.67L210.362 253.327L210.726 252.984C210.614 252.864 210.455 252.743 210.245 252.703C210.02 252.659 209.817 252.723 209.658 252.83L209.938 253.245ZM210.362 253.327L209.999 253.67L210.211 253.895L210.575 253.552L210.939 253.21L210.726 252.984L210.362 253.327ZM210.575 253.552L210.211 253.895L210.424 254.121L210.788 253.778L211.151 253.435L210.939 253.21L210.575 253.552ZM210.788 253.778L210.424 254.121C210.604 254.313 210.824 254.475 211.087 254.543L211.212 254.058L211.338 253.574C211.318 253.569 211.254 253.544 211.151 253.435L210.788 253.778ZM211.212 254.058L211.087 254.543L211.3 254.597L211.425 254.113L211.55 253.629L211.338 253.574L211.212 254.058ZM211.425 254.113L211.3 254.597L211.512 254.652L211.638 254.168L211.763 253.684L211.55 253.629L211.425 254.113ZM211.638 254.168L211.512 254.652C211.768 254.718 211.995 254.634 212.158 254.507C212.305 254.392 212.415 254.233 212.501 254.078L212.062 253.837L211.624 253.596C211.598 253.643 211.576 253.676 211.56 253.697C211.543 253.719 211.537 253.723 211.542 253.719C211.549 253.714 211.574 253.696 211.617 253.684C211.664 253.672 211.716 253.672 211.763 253.684L211.638 254.168ZM212.062 253.837L212.501 254.078L212.713 253.691L212.275 253.45L211.837 253.209L211.624 253.596L212.062 253.837ZM212.275 253.45L212.713 253.691L212.926 253.304L212.488 253.064L212.049 252.823L211.837 253.209L212.275 253.45ZM212.488 253.064L212.926 253.304C212.947 253.265 212.953 253.266 212.935 253.282C212.916 253.3 212.845 253.358 212.726 253.364C212.601 253.371 212.518 253.317 212.486 253.291C212.46 253.269 212.461 253.259 212.48 253.293L212.913 253.042L213.345 252.79C213.294 252.703 213.224 252.603 213.126 252.522C213.024 252.437 212.869 252.356 212.674 252.365C212.484 252.375 212.342 252.468 212.252 252.552C212.164 252.635 212.098 252.733 212.049 252.823L212.488 253.064ZM212.913 253.042L212.48 253.293L212.693 253.658L213.125 253.407L213.557 253.155L213.345 252.79L212.913 253.042ZM213.125 253.407L212.693 253.658L212.905 254.023L213.338 253.771L213.77 253.52L213.557 253.155L213.125 253.407ZM213.338 253.771L212.905 254.023C212.987 254.162 213.158 254.412 213.465 254.465C213.827 254.528 214.064 254.28 214.166 254.14L213.763 253.845L213.359 253.55C213.346 253.567 213.357 253.546 213.399 253.521C213.451 253.49 213.535 253.462 213.635 253.48C213.726 253.495 213.776 253.539 213.787 253.549C213.798 253.56 213.791 253.556 213.77 253.52L213.338 253.771ZM213.763 253.845L214.166 254.14L214.379 253.848L213.975 253.554L213.571 253.259L213.359 253.55L213.763 253.845ZM213.975 253.554L214.379 253.848L214.591 253.557L214.188 253.262L213.784 252.968L213.571 253.259L213.975 253.554ZM214.188 253.262L214.591 253.557C214.607 253.536 214.606 253.543 214.586 253.557C214.563 253.574 214.51 253.603 214.433 253.609C214.264 253.62 214.194 253.511 214.224 253.548L214.613 253.234L215.001 252.919C214.89 252.781 214.677 252.59 214.367 252.611C214.072 252.631 213.883 252.831 213.784 252.968L214.188 253.262ZM214.613 253.234L214.224 253.548L214.436 253.811L214.825 253.497L215.214 253.182L215.001 252.919L214.613 253.234ZM214.825 253.497L214.436 253.811L214.649 254.074L215.038 253.759L215.426 253.445L215.214 253.182L214.825 253.497ZM215.038 253.759L214.649 254.074C214.763 254.215 214.989 254.416 215.317 254.372C215.61 254.332 215.787 254.117 215.879 253.979L215.463 253.702L215.046 253.425C215.028 253.453 215.024 253.451 215.039 253.439C215.055 253.426 215.104 253.392 215.183 253.381C215.268 253.369 215.339 253.391 215.385 253.416C215.424 253.438 215.436 253.457 215.426 253.445L215.038 253.759ZM215.463 253.702L215.879 253.979L216.092 253.659L215.675 253.382L215.258 253.105L215.046 253.425L215.463 253.702ZM215.675 253.382L216.092 253.659L216.304 253.339L215.888 253.062L215.471 252.785L215.258 253.105L215.675 253.382ZM215.888 253.062L216.304 253.339C216.321 253.313 216.319 253.323 216.294 253.342C216.264 253.365 216.195 253.404 216.096 253.403C215.998 253.402 215.931 253.363 215.902 253.341C215.878 253.322 215.878 253.314 215.895 253.34L216.312 253.065L216.73 252.791C216.641 252.655 216.441 252.406 216.104 252.403C215.764 252.4 215.561 252.649 215.471 252.785L215.888 253.062ZM216.312 253.065L215.895 253.34L216.107 253.663L216.525 253.389L216.943 253.114L216.73 252.791L216.312 253.065ZM216.525 253.389L216.107 253.663L216.32 253.987L216.738 253.712L217.155 253.438L216.943 253.114L216.525 253.389ZM216.738 253.712L216.32 253.987C216.375 254.072 216.46 254.178 216.586 254.253C216.729 254.34 216.913 254.377 217.102 254.316C217.267 254.264 217.378 254.155 217.445 254.071C217.516 253.984 217.571 253.884 217.616 253.787L217.163 253.577L216.709 253.367C216.697 253.393 216.686 253.412 216.678 253.426C216.67 253.439 216.666 253.444 216.667 253.443C216.668 253.443 216.677 253.431 216.696 253.416C216.715 253.401 216.749 253.379 216.798 253.364C216.849 253.347 216.907 253.341 216.967 253.35C217.025 253.358 217.071 253.378 217.101 253.397C217.156 253.429 217.17 253.46 217.155 253.438L216.738 253.712ZM217.163 253.577L217.616 253.787L217.829 253.328L217.375 253.118L216.921 252.908L216.709 253.367L217.163 253.577ZM217.375 253.118L217.829 253.328L218.041 252.869L217.588 252.659L217.134 252.449L216.921 252.908L217.375 253.118ZM217.588 252.659L218.041 252.869C218.067 252.812 218.085 252.786 218.09 252.779C218.098 252.769 218.073 252.808 218.003 252.839C217.966 252.856 217.917 252.869 217.862 252.87C217.806 252.871 217.756 252.859 217.716 252.843C217.642 252.812 217.613 252.771 217.62 252.779L218.013 252.47L218.405 252.16C218.341 252.078 218.241 251.977 218.097 251.918C217.933 251.851 217.755 251.855 217.597 251.925C217.456 251.988 217.36 252.089 217.297 252.17C217.232 252.256 217.178 252.352 217.134 252.449L217.588 252.659ZM218.013 252.47L217.62 252.779L217.832 253.049L218.225 252.739L218.618 252.43L218.405 252.16L218.013 252.47ZM218.225 252.739L217.832 253.049L218.045 253.318L218.438 253.009L218.83 252.699L218.618 252.43L218.225 252.739ZM218.438 253.009L218.045 253.318C218.211 253.529 218.397 253.71 218.609 253.834L218.863 253.403L219.116 252.972C219.044 252.93 218.947 252.848 218.83 252.699L218.438 253.009ZM218.863 253.403L218.609 253.834L218.822 253.959L219.075 253.528L219.328 253.096L219.116 252.972L218.863 253.403ZM219.075 253.528L218.822 253.959L219.034 254.084L219.288 253.652L219.541 253.221L219.328 253.096L219.075 253.528ZM219.288 253.652L219.034 254.084C219.258 254.215 219.52 254.218 219.748 254.088C219.933 253.982 220.059 253.81 220.145 253.66L219.712 253.41L219.28 253.159C219.256 253.201 219.238 253.224 219.229 253.235C219.219 253.246 219.226 253.235 219.252 253.22C219.281 253.203 219.332 253.184 219.398 253.184C219.463 253.185 219.513 253.205 219.541 253.221L219.288 253.652ZM219.712 253.41L220.145 253.66L220.358 253.292L219.925 253.042L219.492 252.792L219.28 253.159L219.712 253.41ZM219.925 253.042L220.358 253.292L220.57 252.924L220.138 252.674L219.705 252.424L219.492 252.792L219.925 253.042ZM220.138 252.674L220.57 252.924C220.596 252.879 220.619 252.847 220.636 252.825C220.654 252.802 220.663 252.795 220.663 252.795C220.662 252.795 220.647 252.808 220.617 252.818C220.584 252.829 220.544 252.834 220.501 252.829L220.562 252.333L220.624 251.837C220.385 251.807 220.183 251.898 220.037 252.015C219.899 252.126 219.791 252.274 219.705 252.424L220.138 252.674ZM220.562 252.333L220.501 252.829L220.713 252.856L220.775 252.359L220.837 251.863L220.624 251.837L220.562 252.333ZM220.775 252.359L220.713 252.856L220.926 252.882L220.988 252.386L221.049 251.89L220.837 251.863L220.775 252.359ZM220.988 252.386L220.926 252.882C220.857 252.873 220.813 252.846 220.795 252.833C220.779 252.821 220.781 252.818 220.797 252.839C220.83 252.885 220.882 252.978 220.946 253.144L221.413 252.965L221.879 252.786C221.801 252.583 221.712 252.396 221.603 252.248C221.503 252.112 221.325 251.924 221.049 251.89L220.988 252.386ZM221.413 252.965L220.946 253.144L221.158 253.697L221.625 253.518L222.092 253.338L221.879 252.786L221.413 252.965ZM221.625 253.518L221.158 253.697L221.371 254.25L221.838 254.071L222.304 253.891L222.092 253.338L221.625 253.518ZM221.838 254.071L221.371 254.25C221.413 254.359 221.461 254.464 221.518 254.557C221.571 254.644 221.653 254.754 221.775 254.835C221.916 254.927 222.106 254.975 222.306 254.912C222.479 254.858 222.592 254.741 222.657 254.657L222.263 254.35L221.868 254.043C221.868 254.043 221.877 254.031 221.897 254.015C221.917 253.999 221.953 253.975 222.006 253.958C222.062 253.941 222.124 253.935 222.188 253.946C222.249 253.957 222.295 253.98 222.325 253.999C222.377 254.033 222.387 254.062 222.37 254.034C222.356 254.011 222.333 253.967 222.304 253.891L221.838 254.071ZM222.263 254.35L222.657 254.657L222.87 254.383L222.475 254.077L222.08 253.77L221.868 254.043L222.263 254.35ZM222.475 254.077L222.87 254.383L223.082 254.11L222.688 253.803L222.293 253.496L222.08 253.77L222.475 254.077ZM222.688 253.803L223.082 254.11C223.117 254.065 223.052 254.176 222.883 254.17C222.803 254.167 222.747 254.138 222.721 254.119C222.698 254.103 222.696 254.095 222.71 254.115L223.113 253.818L223.515 253.521C223.414 253.384 223.22 253.181 222.917 253.17C222.606 253.16 222.4 253.359 222.293 253.496L222.688 253.803ZM223.113 253.818L222.71 254.115L222.923 254.403L223.325 254.106L223.727 253.809L223.515 253.521L223.113 253.818ZM223.325 254.106L222.923 254.403L223.135 254.691L223.538 254.394L223.94 254.097L223.727 253.809L223.325 254.106ZM223.538 254.394L223.135 254.691C223.197 254.775 223.302 254.89 223.464 254.953C223.653 255.026 223.847 254.998 224.002 254.908C224.134 254.831 224.221 254.719 224.277 254.633C224.336 254.541 224.385 254.437 224.427 254.33L223.962 254.146L223.498 253.962C223.469 254.033 223.448 254.073 223.436 254.092C223.42 254.116 223.437 254.08 223.498 254.044C223.533 254.024 223.584 254.003 223.648 253.996C223.713 253.99 223.774 254.001 223.824 254.02C223.914 254.055 223.948 254.109 223.94 254.097L223.538 254.394ZM223.962 254.146L224.427 254.33L224.64 253.795L224.175 253.61L223.71 253.426L223.498 253.962L223.962 254.146ZM224.175 253.61L224.64 253.795L224.852 253.259L224.388 253.074L223.923 252.89L223.71 253.426L224.175 253.61ZM224.388 253.074L224.852 253.259C224.881 253.186 224.904 253.142 224.919 253.118C224.936 253.089 224.93 253.11 224.89 253.139C224.838 253.175 224.736 253.219 224.611 253.194C224.502 253.173 224.448 253.114 224.442 253.109L224.812 252.772L225.183 252.436C225.107 252.353 224.982 252.248 224.802 252.213C224.605 252.174 224.433 252.236 224.31 252.323C224.11 252.466 223.995 252.707 223.923 252.89L224.388 253.074ZM224.812 252.772L224.442 253.109L224.655 253.343L225.025 253.006L225.395 252.67L225.183 252.436L224.812 252.772ZM225.025 253.006L224.655 253.343L224.867 253.576L225.238 253.24L225.608 252.904L225.395 252.67L225.025 253.006ZM225.238 253.24L224.867 253.576C225.02 253.745 225.175 253.898 225.332 254.036L225.663 253.661L225.993 253.286C225.867 253.175 225.738 253.048 225.608 252.904L225.238 253.24ZM225.663 253.661L225.332 254.036L225.545 254.223L225.875 253.848L226.205 253.473L225.993 253.286L225.663 253.661ZM225.875 253.848L225.545 254.223L225.757 254.41L226.087 254.035L226.418 253.66L226.205 253.473L225.875 253.848ZM226.087 254.035L225.757 254.41C225.838 254.482 225.948 254.552 226.089 254.582C226.236 254.614 226.38 254.593 226.506 254.536C226.728 254.436 226.864 254.238 226.949 254.088L226.513 253.843L226.076 253.599C226.053 253.641 226.038 253.659 226.034 253.664C226.029 253.669 226.047 253.646 226.094 253.625C226.149 253.6 226.222 253.588 226.299 253.604C226.368 253.619 226.408 253.651 226.418 253.66L226.087 254.035ZM226.513 253.843L226.949 254.088L227.161 253.709L226.725 253.465L226.289 253.22L226.076 253.599L226.513 253.843ZM226.725 253.465L227.161 253.709L227.374 253.33L226.938 253.086L226.501 252.841L226.289 253.22L226.725 253.465ZM226.938 253.086L227.374 253.33C227.396 253.291 227.405 253.284 227.396 253.293C227.388 253.301 227.34 253.346 227.25 253.365C227.148 253.385 227.059 253.359 227.003 253.326C226.958 253.3 226.946 253.276 226.958 253.293L227.363 252.999L227.767 252.705C227.664 252.564 227.421 252.309 227.05 252.385C226.746 252.447 226.58 252.701 226.501 252.841L226.938 253.086ZM227.363 252.999L226.958 253.293L227.171 253.586L227.575 253.292L227.979 252.998L227.767 252.705L227.363 252.999ZM227.575 253.292L227.171 253.586L227.383 253.878L227.788 253.584L228.192 253.29L227.979 252.998L227.575 253.292ZM227.788 253.584L227.383 253.878C227.535 254.087 227.689 254.276 227.845 254.446L228.213 254.106L228.58 253.767C228.453 253.63 228.324 253.472 228.192 253.29L227.788 253.584ZM228.213 254.106L227.845 254.446L228.058 254.676L228.425 254.336L228.792 253.996L228.58 253.767L228.213 254.106ZM228.425 254.336L228.058 254.676L228.27 254.905L228.638 254.566L229.005 254.226L228.792 253.996L228.425 254.336ZM228.638 254.566L228.27 254.905C228.346 254.987 228.465 255.084 228.632 255.123C228.816 255.165 228.985 255.119 229.115 255.038C229.327 254.906 229.448 254.67 229.522 254.498L229.063 254.3L228.603 254.103C228.575 254.168 228.554 254.205 228.542 254.222C228.528 254.244 228.539 254.219 228.585 254.19C228.644 254.154 228.742 254.122 228.855 254.148C228.952 254.17 229 254.221 229.005 254.226L228.638 254.566ZM229.063 254.3L229.522 254.498L229.734 254.003L229.275 253.805L228.816 253.608L228.603 254.103L229.063 254.3ZM229.275 253.805L229.734 254.003L229.947 253.508L229.488 253.31L229.028 253.113L228.816 253.608L229.275 253.805ZM229.488 253.31L229.947 253.508C229.974 253.445 229.99 253.424 229.989 253.425C229.988 253.426 229.976 253.441 229.952 253.46C229.927 253.479 229.883 253.506 229.82 253.522C229.755 253.538 229.686 253.537 229.622 253.52C229.561 253.503 229.519 253.476 229.496 253.457C229.456 253.425 229.452 253.406 229.474 253.444L229.913 253.205L230.351 252.965C230.302 252.874 230.228 252.762 230.117 252.674C229.992 252.575 229.801 252.496 229.58 252.551C229.388 252.599 229.265 252.726 229.199 252.812C229.127 252.904 229.072 253.011 229.028 253.113L229.488 253.31ZM229.913 253.205L229.474 253.444L229.686 253.834L230.125 253.594L230.564 253.355L230.351 252.965L229.913 253.205ZM230.125 253.594L229.686 253.834L229.899 254.223L230.338 253.984L230.776 253.745L230.564 253.355L230.125 253.594ZM230.338 253.984L229.899 254.223C229.983 254.377 230.08 254.523 230.198 254.639C230.315 254.756 230.478 254.868 230.688 254.9L230.763 254.406L230.837 253.911C230.905 253.922 230.926 253.953 230.902 253.929C230.878 253.905 230.834 253.85 230.776 253.745L230.338 253.984ZM230.763 254.406L230.688 254.9L230.9 254.932L230.975 254.438L231.05 253.943L230.837 253.911L230.763 254.406ZM230.975 254.438L230.9 254.932L231.113 254.964L231.188 254.47L231.262 253.975L231.05 253.943L230.975 254.438ZM231.188 254.47L231.113 254.964C231.291 254.991 231.469 254.998 231.648 254.986L231.613 254.487L231.577 253.988C231.473 253.996 231.368 253.991 231.262 253.975L231.188 254.47ZM231.613 254.487L231.648 254.986L231.86 254.971L231.825 254.472L231.79 253.973L231.577 253.988L231.613 254.487ZM231.825 254.472L231.86 254.971L232.073 254.956L232.038 254.457L232.002 253.958L231.79 253.973L231.825 254.472ZM232.038 254.457L232.073 254.956C232.228 254.945 232.383 254.928 232.537 254.904L232.463 254.41L232.388 253.916C232.259 253.935 232.131 253.949 232.002 253.958L232.038 254.457ZM232.463 254.41L232.537 254.904L232.75 254.872L232.675 254.378L232.6 253.883L232.388 253.916L232.463 254.41ZM232.675 254.378L232.75 254.872L232.962 254.84L232.888 254.346L232.813 253.851L232.6 253.883L232.675 254.378ZM232.888 254.346L232.962 254.84C233.036 254.829 233.11 254.832 233.187 254.853L233.312 254.368L233.438 253.884C233.232 253.831 233.022 253.82 232.813 253.851L232.888 254.346ZM233.312 254.368L233.187 254.853L233.4 254.907L233.525 254.423L233.65 253.939L233.438 253.884L233.312 254.368ZM233.525 254.423L233.4 254.907L233.612 254.962L233.738 254.478L233.863 253.994L233.65 253.939L233.525 254.423ZM233.738 254.478L233.612 254.962C233.982 255.058 234.295 254.895 234.512 254.682L234.163 254.325L233.813 253.968C233.778 254.002 233.766 254.002 233.781 253.997C233.789 253.994 233.802 253.991 233.818 253.99C233.835 253.989 233.851 253.991 233.863 253.994L233.738 254.478ZM234.163 254.325L234.512 254.682L234.725 254.474L234.375 254.117L234.025 253.76L233.813 253.968L234.163 254.325ZM234.375 254.117L234.725 254.474L234.937 254.266L234.588 253.909L234.238 253.552L234.025 253.76L234.375 254.117ZM234.588 253.909L234.937 254.266C235.036 254.169 235.101 254.144 235.127 254.138L235.013 253.651L234.898 253.164C234.641 253.225 234.422 253.372 234.238 253.552L234.588 253.909ZM235.013 253.651L235.127 254.138L235.339 254.088L235.225 253.601L235.111 253.115L234.898 253.164L235.013 253.651ZM235.225 253.601L235.339 254.088L235.552 254.038L235.438 253.552L235.323 253.065L235.111 253.115L235.225 253.601ZM235.438 253.552L235.552 254.038C235.528 254.044 235.502 254.045 235.475 254.042C235.449 254.038 235.431 254.031 235.422 254.026C235.414 254.022 235.415 254.021 235.425 254.03C235.435 254.038 235.45 254.054 235.471 254.08L235.862 253.769L236.254 253.458C236.067 253.223 235.748 252.965 235.323 253.065L235.438 253.552ZM235.862 253.769L235.471 254.08L235.684 254.347L236.075 254.036L236.466 253.725L236.254 253.458L235.862 253.769ZM236.075 254.036L235.684 254.347L235.896 254.615L236.288 254.304L236.679 253.992L236.466 253.725L236.075 254.036ZM236.288 254.304L235.896 254.615C236.012 254.76 236.26 254.982 236.613 254.899C236.9 254.833 237.063 254.597 237.145 254.456L236.713 254.205L236.28 253.954C236.259 253.991 236.249 253.998 236.257 253.991C236.264 253.984 236.306 253.944 236.387 253.925C236.478 253.904 236.563 253.922 236.622 253.953C236.671 253.978 236.688 254.003 236.679 253.992L236.288 254.304ZM236.713 254.205L237.145 254.456L237.357 254.089L236.925 253.838L236.493 253.587L236.28 253.954L236.713 254.205ZM236.925 253.838L237.357 254.089L237.57 253.723L237.138 253.472L236.705 253.221L236.493 253.587L236.925 253.838ZM237.138 253.472L237.57 253.723C237.59 253.688 237.595 253.69 237.577 253.706C237.557 253.724 237.49 253.775 237.381 253.782C237.267 253.789 237.186 253.743 237.152 253.716C237.122 253.694 237.121 253.682 237.139 253.711L237.562 253.446L237.986 253.181C237.903 253.048 237.691 252.76 237.319 252.783C237.139 252.795 237.002 252.879 236.911 252.96C236.822 253.04 236.755 253.134 236.705 253.221L237.138 253.472ZM237.562 253.446L237.139 253.711L237.351 254.051L237.775 253.786L238.199 253.521L237.986 253.181L237.562 253.446ZM237.775 253.786L237.351 254.051L237.564 254.391L237.988 254.126L238.411 253.861L238.199 253.521L237.775 253.786ZM237.988 254.126L237.564 254.391C237.723 254.646 237.947 254.911 238.267 255.009L238.413 254.53L238.558 254.052C238.582 254.059 238.577 254.065 238.545 254.035C238.513 254.004 238.468 253.95 238.411 253.861L237.988 254.126ZM238.413 254.53L238.267 255.009L238.479 255.073L238.625 254.595L238.771 254.117L238.558 254.052L238.413 254.53ZM238.625 254.595L238.479 255.073L238.692 255.138L238.838 254.66L238.983 254.182L238.771 254.117L238.625 254.595ZM238.838 254.66L238.692 255.138C239.061 255.251 239.326 255.015 239.444 254.865C239.566 254.709 239.658 254.5 239.734 254.283L239.263 254.118L238.791 253.952C238.76 254.041 238.731 254.11 238.706 254.161C238.68 254.215 238.663 254.24 238.656 254.248C238.648 254.259 238.668 254.228 238.725 254.2C238.756 254.186 238.797 254.172 238.846 254.168C238.895 254.163 238.942 254.169 238.983 254.182L238.838 254.66ZM239.263 254.118L239.734 254.283L239.947 253.676L239.475 253.511L239.003 253.345L238.791 253.952L239.263 254.118ZM239.475 253.511L239.947 253.676L240.159 253.069L239.688 252.904L239.216 252.738L239.003 253.345L239.475 253.511ZM239.688 252.904L240.159 253.069C240.189 252.984 240.209 252.948 240.214 252.939C240.217 252.936 240.207 252.952 240.183 252.974C240.158 252.996 240.106 253.036 240.025 253.057C239.937 253.08 239.847 253.072 239.771 253.042C239.702 253.015 239.662 252.977 239.646 252.961C239.619 252.933 239.626 252.927 239.653 252.99L240.112 252.794L240.572 252.598C240.528 252.495 240.465 252.37 240.367 252.268C240.262 252.159 240.052 252.017 239.775 252.089C239.552 252.146 239.428 252.314 239.373 252.399C239.307 252.501 239.257 252.621 239.216 252.738L239.688 252.904ZM240.112 252.794L239.653 252.99L239.865 253.488L240.325 253.291L240.785 253.095L240.572 252.598L240.112 252.794ZM240.325 253.291L239.865 253.488L240.078 253.985L240.538 253.789L240.997 253.592L240.785 253.095L240.325 253.291ZM240.538 253.789L240.078 253.985C240.156 254.168 240.262 254.367 240.417 254.505C240.501 254.58 240.62 254.656 240.774 254.682C240.935 254.709 241.085 254.672 241.206 254.605L240.963 254.168L240.719 253.731C240.77 253.703 240.848 253.68 240.939 253.695C241.022 253.709 241.07 253.748 241.083 253.759C241.095 253.77 241.089 253.768 241.069 253.736C241.05 253.706 241.026 253.659 240.997 253.592L240.538 253.789ZM240.963 254.168L241.206 254.605L241.418 254.487L241.175 254.05L240.932 253.613L240.719 253.731L240.963 254.168ZM241.175 254.05L241.418 254.487L241.631 254.368L241.388 253.931L241.144 253.495L240.932 253.613L241.175 254.05ZM241.388 253.931L241.631 254.368C241.625 254.372 241.609 254.379 241.585 254.383C241.561 254.388 241.535 254.388 241.51 254.384C241.461 254.375 241.449 254.354 241.473 254.377L241.813 254.009L242.152 253.642C242.034 253.534 241.881 253.435 241.69 253.4C241.491 253.363 241.303 253.406 241.144 253.495L241.388 253.931ZM241.813 254.009L241.473 254.377L241.686 254.573L242.025 254.205L242.364 253.838L242.152 253.642L241.813 254.009ZM242.025 254.205L241.686 254.573L241.898 254.769L242.238 254.402L242.577 254.034L242.364 253.838L242.025 254.205ZM242.238 254.402L241.898 254.769C241.98 254.844 242.097 254.923 242.251 254.952C242.414 254.983 242.566 254.948 242.69 254.88C242.903 254.764 243.031 254.551 243.11 254.392L242.663 254.169L242.215 253.947C242.189 253.999 242.171 254.026 242.162 254.037C242.152 254.05 242.166 254.027 242.21 254.003C242.263 253.974 242.345 253.952 242.436 253.969C242.519 253.985 242.566 254.024 242.577 254.034L242.238 254.402ZM242.663 254.169L243.11 254.392L243.323 253.963L242.875 253.741L242.427 253.519L242.215 253.947L242.663 254.169ZM242.875 253.741L243.323 253.963L243.535 253.535L243.088 253.313L242.64 253.09L242.427 253.519L242.875 253.741ZM243.088 253.313L243.535 253.535C243.562 253.482 243.582 253.451 243.594 253.435C243.607 253.417 243.602 253.43 243.573 253.448C243.539 253.47 243.476 253.499 243.391 253.496C243.307 253.494 243.249 253.462 243.222 253.443L243.513 253.036L243.803 252.629C243.706 252.559 243.577 252.501 243.422 252.497C243.266 252.492 243.131 252.542 243.027 252.61C242.84 252.732 242.721 252.927 242.64 253.09L243.088 253.313ZM243.513 253.036L243.222 253.443L243.435 253.595L243.725 253.188L244.015 252.781L243.803 252.629L243.513 253.036ZM243.725 253.188L243.435 253.595L243.647 253.746L243.938 253.339L244.228 252.932L244.015 252.781L243.725 253.188ZM243.938 253.339L243.647 253.746C243.893 253.922 244.197 254.001 244.516 253.898L244.363 253.422L244.209 252.946C244.211 252.946 244.216 252.944 244.224 252.944C244.232 252.943 244.24 252.944 244.246 252.945C244.258 252.947 244.252 252.95 244.228 252.932L243.938 253.339ZM244.363 253.422L244.516 253.898L244.729 253.829L244.575 253.354L244.421 252.878L244.209 252.946L244.363 253.422ZM244.575 253.354L244.729 253.829L244.941 253.761L244.787 253.285L244.634 252.809L244.421 252.878L244.575 253.354ZM244.787 253.285L244.941 253.761C245.122 253.702 245.297 253.622 245.467 253.521L245.213 253.091L244.958 252.66C244.845 252.727 244.737 252.776 244.634 252.809L244.787 253.285ZM245.213 253.091L245.467 253.521L245.68 253.395L245.425 252.965L245.17 252.534L244.958 252.66L245.213 253.091ZM245.425 252.965L245.68 253.395L245.892 253.269L245.638 252.839L245.383 252.409L245.17 252.534L245.425 252.965ZM245.638 252.839L245.892 253.269C245.946 253.238 245.966 253.243 245.972 253.244L246.063 252.753L246.153 252.261C245.876 252.21 245.613 252.273 245.383 252.409L245.638 252.839ZM246.063 252.753L245.972 253.244L246.184 253.284L246.275 252.792L246.366 252.3L246.153 252.261L246.063 252.753ZM246.275 252.792L246.184 253.284L246.397 253.323L246.488 252.831L246.578 252.339L246.366 252.3L246.275 252.792ZM246.488 252.831L246.397 253.323C246.305 253.306 246.281 253.257 246.316 253.298C246.346 253.335 246.395 253.411 246.457 253.547L246.912 253.342L247.368 253.136C247.288 252.958 247.195 252.792 247.084 252.658C246.977 252.53 246.812 252.383 246.578 252.339L246.488 252.831ZM246.912 253.342L246.457 253.547L246.669 254.018L247.125 253.813L247.581 253.607L247.368 253.136L246.912 253.342ZM247.125 253.813L246.669 254.018L246.882 254.489L247.338 254.284L247.793 254.078L247.581 253.607L247.125 253.813ZM247.338 254.284L246.882 254.489C246.926 254.588 246.996 254.718 247.106 254.819C247.237 254.939 247.467 255.046 247.73 254.945C247.927 254.869 248.035 254.709 248.086 254.623C248.147 254.521 248.196 254.401 248.237 254.279L247.763 254.12L247.288 253.961C247.258 254.051 247.236 254.097 247.226 254.113C247.222 254.121 247.226 254.111 247.243 254.093C247.26 254.076 247.301 254.038 247.37 254.012C247.447 253.982 247.537 253.975 247.625 253.998C247.706 254.02 247.757 254.059 247.781 254.081C247.821 254.118 247.819 254.136 247.793 254.078L247.338 254.284ZM247.763 254.12L248.237 254.279L248.449 253.644L247.975 253.485L247.501 253.327L247.288 253.961L247.763 254.12ZM247.975 253.485L248.449 253.644L248.662 253.009L248.188 252.85L247.713 252.692L247.501 253.327L247.975 253.485ZM248.188 252.85L248.662 253.009C248.692 252.918 248.717 252.86 248.735 252.826C248.757 252.785 248.753 252.81 248.707 252.845C248.68 252.866 248.632 252.896 248.563 252.912C248.49 252.928 248.416 252.923 248.351 252.902C248.235 252.864 248.192 252.791 248.202 252.806L248.613 252.52L249.023 252.234C248.962 252.148 248.849 252.013 248.662 251.951C248.435 251.877 248.229 251.95 248.093 252.056C247.976 252.146 247.901 252.265 247.852 252.357C247.799 252.457 247.754 252.571 247.713 252.692L248.188 252.85ZM248.613 252.52L248.202 252.806L248.415 253.111L248.825 252.825L249.235 252.538L249.023 252.234L248.613 252.52ZM248.825 252.825L248.415 253.111L248.627 253.415L249.038 253.129L249.448 252.843L249.235 252.538L248.825 252.825ZM249.038 253.129L248.627 253.415C248.793 253.653 249.002 253.872 249.27 253.984L249.463 253.522L249.655 253.061C249.64 253.054 249.565 253.011 249.448 252.843L249.038 253.129ZM249.463 253.522L249.27 253.984L249.483 254.072L249.675 253.611L249.867 253.149L249.655 253.061L249.463 253.522ZM249.675 253.611L249.483 254.072L249.695 254.161L249.888 253.699L250.08 253.238L249.867 253.149L249.675 253.611ZM249.888 253.699L249.695 254.161C249.772 254.193 249.866 254.251 249.975 254.351L250.313 253.982L250.65 253.613C250.476 253.454 250.286 253.324 250.08 253.238L249.888 253.699ZM250.313 253.982L249.975 254.351L250.188 254.546L250.525 254.177L250.862 253.808L250.65 253.613L250.313 253.982ZM250.525 254.177L250.188 254.546L250.4 254.74L250.738 254.371L251.075 254.002L250.862 253.808L250.525 254.177ZM250.738 254.371L250.4 254.74C250.486 254.819 250.614 254.902 250.782 254.923C250.959 254.944 251.113 254.89 251.227 254.813C251.424 254.682 251.543 254.463 251.619 254.291L251.163 254.088L250.706 253.885C250.678 253.946 250.657 253.983 250.644 254.002C250.629 254.023 250.636 254.006 250.673 253.982C250.717 253.952 250.8 253.917 250.905 253.93C251.003 253.942 251.06 253.988 251.075 254.002L250.738 254.371ZM251.163 254.088L251.619 254.291L251.832 253.813L251.375 253.61L250.918 253.407L250.706 253.885L251.163 254.088ZM251.375 253.61L251.832 253.813L252.044 253.335L251.588 253.132L251.131 252.929L250.918 253.407L251.375 253.61ZM251.588 253.132L252.044 253.335C252.073 253.27 252.099 253.222 252.12 253.187C252.131 253.17 252.139 253.157 252.146 253.149C252.149 253.144 252.152 253.141 252.153 253.139C252.155 253.137 252.156 253.136 252.156 253.136C252.156 253.136 252.155 253.137 252.153 253.139C252.15 253.141 252.147 253.144 252.142 253.148C252.131 253.155 252.115 253.165 252.091 253.175C252.039 253.195 251.973 253.204 251.906 253.189L252.013 252.701L252.119 252.212C251.819 252.146 251.583 252.293 251.444 252.434C251.311 252.569 251.211 252.749 251.131 252.929L251.588 253.132ZM252.013 252.701L251.906 253.189L252.118 253.236L252.225 252.747L252.332 252.259L252.119 252.212L252.013 252.701ZM252.225 252.747L252.118 253.236L252.331 253.282L252.438 252.794L252.544 252.305L252.332 252.259L252.225 252.747ZM252.438 252.794L252.331 253.282C252.59 253.339 252.845 253.301 253.079 253.189L252.862 252.738L252.646 252.287C252.596 252.311 252.568 252.31 252.544 252.305L252.438 252.794ZM252.862 252.738L253.079 253.189L253.291 253.087L253.075 252.636L252.859 252.186L252.646 252.287L252.862 252.738ZM253.075 252.636L253.291 253.087L253.504 252.985L253.287 252.535L253.071 252.084L252.859 252.186L253.075 252.636ZM253.287 252.535L253.504 252.985C253.486 252.994 253.457 253.004 253.419 253.006C253.382 253.008 253.348 253.001 253.324 252.992C253.281 252.975 253.284 252.96 253.324 253.01L253.713 252.695L254.101 252.38C253.999 252.254 253.861 252.125 253.676 252.056C253.472 251.979 253.26 251.993 253.071 252.084L253.287 252.535ZM253.713 252.695L253.324 253.01L253.537 253.272L253.925 252.957L254.313 252.642L254.101 252.38L253.713 252.695ZM253.925 252.957L253.537 253.272L253.749 253.533L254.138 253.218L254.526 252.903L254.313 252.642L253.925 252.957ZM254.138 253.218L253.749 253.533C253.917 253.74 254.106 253.917 254.323 254.035L254.562 253.596L254.802 253.158C254.735 253.121 254.641 253.046 254.526 252.903L254.138 253.218ZM254.562 253.596L254.323 254.035L254.535 254.151L254.775 253.713L255.015 253.274L254.802 253.158L254.562 253.596ZM254.775 253.713L254.535 254.151L254.748 254.267L254.987 253.829L255.227 253.39L255.015 253.274L254.775 253.713ZM254.987 253.829L254.748 254.267C254.883 254.341 255.018 254.419 255.153 254.501L255.413 254.074L255.672 253.646C255.524 253.557 255.376 253.471 255.227 253.39L254.987 253.829ZM255.413 254.074L255.153 254.501L255.365 254.63L255.625 254.203L255.885 253.775L255.672 253.646L255.413 254.074ZM255.625 254.203L255.365 254.63L255.578 254.759L255.838 254.332L256.097 253.904L255.885 253.775L255.625 254.203ZM255.838 254.332L255.578 254.759C255.791 254.889 256.048 254.906 256.281 254.784C256.472 254.685 256.601 254.516 256.69 254.37L256.263 254.11L255.835 253.851C255.812 253.889 255.796 253.909 255.789 253.917C255.781 253.925 255.79 253.913 255.819 253.898C255.851 253.881 255.902 253.864 255.965 253.867C256.027 253.87 256.073 253.89 256.097 253.904L255.838 254.332ZM256.263 254.11L256.69 254.37L256.903 254.019L256.475 253.76L256.047 253.501L255.835 253.851L256.263 254.11ZM256.475 253.76L256.903 254.019L257.115 253.669L256.688 253.41L256.26 253.15L256.047 253.501L256.475 253.76ZM256.688 253.41L257.115 253.669C257.138 253.632 257.152 253.615 257.156 253.611C257.161 253.606 257.145 253.624 257.106 253.642C257.063 253.661 257.002 253.674 256.935 253.665C256.871 253.655 256.83 253.63 256.814 253.618L257.113 253.217L257.411 252.816C257.218 252.672 256.955 252.612 256.694 252.731C256.485 252.825 256.348 253.005 256.26 253.15L256.688 253.41ZM257.113 253.217L256.814 253.618L257.027 253.776L257.325 253.375L257.623 252.973L257.411 252.816L257.113 253.217ZM257.325 253.375L257.027 253.776L257.239 253.934L257.538 253.533L257.836 253.131L257.623 252.973L257.325 253.375ZM257.538 253.533L257.239 253.934C257.435 254.079 257.657 254.183 257.904 254.212L257.963 253.716L258.021 253.219C257.985 253.215 257.924 253.197 257.836 253.131L257.538 253.533ZM257.963 253.716L257.904 254.212L258.116 254.237L258.175 253.741L258.234 253.244L258.021 253.219L257.963 253.716ZM258.175 253.741L258.116 254.237L258.329 254.263L258.387 253.766L258.446 253.27L258.234 253.244L258.175 253.741ZM258.387 253.766L258.329 254.263C258.728 254.31 259.022 254.064 259.204 253.835L258.812 253.524L258.421 253.213C258.399 253.24 258.381 253.259 258.369 253.27C258.356 253.282 258.35 253.285 258.352 253.284C258.355 253.282 258.365 253.277 258.384 253.273C258.403 253.268 258.424 253.267 258.446 253.27L258.387 253.766ZM258.812 253.524L259.204 253.835L259.417 253.567L259.025 253.256L258.633 252.945L258.421 253.213L258.812 253.524ZM259.025 253.256L259.417 253.567L259.629 253.3L259.238 252.989L258.846 252.678L258.633 252.945L259.025 253.256ZM259.238 252.989L259.629 253.3C259.68 253.236 259.719 253.2 259.745 253.181C259.77 253.163 259.776 253.165 259.763 253.168L259.663 252.678L259.562 252.188C259.256 252.251 259.021 252.457 258.846 252.678L259.238 252.989ZM259.663 252.678L259.763 253.168L259.975 253.124L259.875 252.634L259.775 252.144L259.562 252.188L259.663 252.678ZM259.875 252.634L259.975 253.124L260.188 253.081L260.088 252.591L259.987 252.101L259.775 252.144L259.875 252.634ZM260.088 252.591L260.188 253.081C260.367 253.044 260.543 252.987 260.716 252.91L260.513 252.453L260.309 251.996C260.198 252.046 260.091 252.08 259.987 252.101L260.088 252.591ZM260.513 252.453L260.716 252.91L260.928 252.815L260.725 252.358L260.522 251.902L260.309 251.996L260.513 252.453ZM260.725 252.358L260.928 252.815L261.141 252.721L260.938 252.264L260.734 251.807L260.522 251.902L260.725 252.358ZM260.938 252.264L261.141 252.721C261.104 252.737 261.057 252.75 261.003 252.751C260.949 252.752 260.9 252.742 260.86 252.726C260.786 252.697 260.756 252.656 260.761 252.662C260.764 252.666 260.78 252.688 260.806 252.741C260.83 252.792 260.859 252.861 260.89 252.951L261.363 252.789L261.835 252.627C261.76 252.407 261.666 252.191 261.539 252.033C261.473 251.952 261.372 251.853 261.227 251.796C261.065 251.732 260.89 251.738 260.734 251.807L260.938 252.264ZM261.363 252.789L260.89 252.951L261.102 253.571L261.575 253.408L262.048 253.246L261.835 252.627L261.363 252.789ZM261.575 253.408L261.102 253.571L261.315 254.19L261.787 254.028L262.26 253.866L262.048 253.246L261.575 253.408ZM261.787 254.028L261.315 254.19C261.356 254.31 261.404 254.428 261.465 254.529C261.518 254.616 261.624 254.768 261.812 254.844C262.061 254.945 262.29 254.857 262.43 254.738C262.546 254.639 262.618 254.511 262.664 254.414L262.213 254.2L261.761 253.986C261.736 254.038 261.737 254.015 261.782 253.976C261.81 253.953 261.863 253.916 261.944 253.898C262.031 253.878 262.117 253.889 262.188 253.917C262.252 253.943 262.291 253.979 262.306 253.995C262.322 254.011 262.326 254.02 262.322 254.013C262.312 253.997 262.29 253.953 262.26 253.866L261.787 254.028ZM262.213 254.2L262.664 254.414L262.877 253.967L262.425 253.752L261.973 253.538L261.761 253.986L262.213 254.2ZM262.425 253.752L262.877 253.967L263.089 253.519L262.637 253.305L262.186 253.09L261.973 253.538L262.425 253.752ZM262.637 253.305L263.089 253.519C263.15 253.391 263.202 253.309 263.24 253.261C263.281 253.21 263.286 253.224 263.244 253.24L263.062 252.774L262.881 252.309C262.698 252.38 262.56 252.51 262.46 252.636C262.356 252.765 262.266 252.921 262.186 253.09L262.637 253.305ZM263.062 252.774L263.244 253.24L263.457 253.157L263.275 252.691L263.093 252.226L262.881 252.309L263.062 252.774ZM263.275 252.691L263.457 253.157L263.669 253.074L263.488 252.608L263.306 252.143L263.093 252.226L263.275 252.691ZM263.488 252.608L263.669 253.074C263.665 253.076 263.655 253.079 263.641 253.08C263.627 253.082 263.613 253.081 263.601 253.078C263.578 253.074 263.578 253.066 263.602 253.085L263.913 252.694L264.223 252.302C263.973 252.104 263.647 252.009 263.306 252.143L263.488 252.608ZM263.913 252.694L263.602 253.085L263.814 253.254L264.125 252.862L264.436 252.47L264.223 252.302L263.913 252.694ZM264.125 252.862L263.814 253.254L264.027 253.422L264.338 253.031L264.648 252.639L264.436 252.47L264.125 252.862ZM264.338 253.031L264.027 253.422C264.168 253.534 264.309 253.647 264.45 253.76L264.763 253.369L265.075 252.979C264.933 252.865 264.79 252.752 264.648 252.639L264.338 253.031ZM264.763 253.369L264.45 253.76L264.663 253.93L264.975 253.539L265.287 253.149L265.075 252.979L264.763 253.369ZM264.975 253.539L264.663 253.93L264.875 254.1L265.188 253.709L265.5 253.319L265.287 253.149L264.975 253.539ZM265.188 253.709L264.875 254.1C265.095 254.275 265.372 254.389 265.686 254.342L265.613 253.847L265.539 253.353C265.542 253.352 265.546 253.352 265.55 253.353C265.554 253.353 265.556 253.354 265.555 253.353C265.552 253.352 265.534 253.346 265.5 253.319L265.188 253.709ZM265.613 253.847L265.686 254.342L265.899 254.31L265.825 253.816L265.751 253.321L265.539 253.353L265.613 253.847ZM265.825 253.816L265.899 254.31L266.111 254.279L266.037 253.784L265.964 253.29L265.751 253.321L265.825 253.816ZM266.037 253.784L266.111 254.279C266.137 254.275 266.172 254.276 266.232 254.307L266.463 253.863L266.693 253.419C266.469 253.303 266.222 253.251 265.964 253.29L266.037 253.784ZM266.463 253.863L266.232 254.307L266.444 254.417L266.675 253.974L266.906 253.53L266.693 253.419L266.463 253.863ZM266.675 253.974L266.444 254.417L266.657 254.528L266.887 254.084L267.118 253.641L266.906 253.53L266.675 253.974ZM266.887 254.084L266.657 254.528C266.809 254.607 266.984 254.646 267.17 254.62C267.35 254.594 267.503 254.513 267.625 254.415L267.312 254.024L267 253.634C266.98 253.65 266.991 253.635 267.03 253.629C267.05 253.627 267.069 253.627 267.087 253.631C267.104 253.634 267.115 253.639 267.118 253.641L266.887 254.084ZM267.312 254.024L267.625 254.415L267.838 254.244L267.525 253.854L267.212 253.464L267 253.634L267.312 254.024ZM267.525 253.854L267.838 254.244L268.05 254.074L267.738 253.684L267.425 253.294L267.212 253.464L267.525 253.854ZM267.738 253.684L268.05 254.074C268.142 254 268.206 253.978 268.243 253.973L268.163 253.479L268.082 252.985C267.836 253.025 267.616 253.14 267.425 253.294L267.738 253.684ZM268.163 253.479L268.243 253.973L268.455 253.938L268.375 253.444L268.295 252.951L268.082 252.985L268.163 253.479ZM268.375 253.444L268.455 253.938L268.668 253.904L268.588 253.41L268.507 252.916L268.295 252.951L268.375 253.444ZM268.588 253.41L268.668 253.904C268.642 253.908 268.617 253.907 268.593 253.902C268.57 253.897 268.556 253.89 268.551 253.887C268.547 253.885 268.551 253.887 268.563 253.898C268.575 253.91 268.593 253.928 268.615 253.957L269.013 253.654L269.41 253.351C269.231 253.117 268.927 252.848 268.507 252.916L268.588 253.41ZM269.013 253.654L268.615 253.957L268.827 254.236L269.225 253.933L269.623 253.63L269.41 253.351L269.013 253.654ZM269.225 253.933L268.827 254.236L269.04 254.515L269.438 254.212L269.835 253.908L269.623 253.63L269.225 253.933ZM269.438 254.212L269.04 254.515C269.146 254.654 269.367 254.872 269.701 254.837C270.006 254.806 270.189 254.58 270.28 254.443L269.863 254.168L269.445 253.893C269.427 253.92 269.424 253.917 269.441 253.903C269.46 253.887 269.514 253.851 269.599 253.843C269.688 253.833 269.76 253.86 269.802 253.885C269.838 253.907 269.847 253.924 269.835 253.908L269.438 254.212ZM269.863 254.168L270.28 254.443L270.493 254.12L270.075 253.845L269.657 253.57L269.445 253.893L269.863 254.168ZM270.075 253.845L270.493 254.12L270.705 253.798L270.287 253.523L269.87 253.247L269.657 253.57L270.075 253.845ZM270.287 253.523L270.705 253.798C270.722 253.771 270.723 253.778 270.701 253.795C270.676 253.814 270.614 253.853 270.521 253.856C270.425 253.86 270.355 253.826 270.32 253.802C270.291 253.782 270.287 253.769 270.302 253.791L270.713 253.505L271.123 253.219C271.027 253.082 270.818 252.843 270.479 252.857C270.154 252.871 269.96 253.111 269.87 253.247L270.287 253.523ZM270.713 253.505L270.302 253.791L270.515 254.096L270.925 253.81L271.335 253.524L271.123 253.219L270.713 253.505ZM270.925 253.81L270.515 254.096L270.727 254.4L271.137 254.115L271.548 253.829L271.335 253.524L270.925 253.81ZM271.137 254.115L270.727 254.4C270.823 254.538 271.016 254.757 271.328 254.771C271.652 254.785 271.861 254.569 271.964 254.431L271.562 254.133L271.161 253.835C271.148 253.853 271.153 253.84 271.183 253.82C271.218 253.798 271.284 253.768 271.372 253.772C271.458 253.776 271.516 253.809 271.541 253.828C271.563 253.844 271.564 253.851 271.548 253.829L271.137 254.115ZM271.562 254.133L271.964 254.431L272.176 254.145L271.775 253.847L271.374 253.549L271.161 253.835L271.562 254.133ZM271.775 253.847L272.176 254.145L272.389 253.859L271.988 253.561L271.586 253.263L271.374 253.549L271.775 253.847ZM271.988 253.561L272.389 253.859C272.523 253.678 272.656 253.513 272.788 253.364L272.413 253.034L272.037 252.703C271.886 252.875 271.735 253.062 271.586 253.263L271.988 253.561ZM272.413 253.034L272.788 253.364L273 253.123L272.625 252.792L272.25 252.462L272.037 252.703L272.413 253.034ZM272.625 252.792L273 253.123L273.213 252.882L272.838 252.551L272.462 252.221L272.25 252.462L272.625 252.792ZM272.838 252.551L273.213 252.882C273.219 252.875 273.203 252.896 273.16 252.916C273.11 252.94 273.039 252.955 272.962 252.942C272.891 252.929 272.849 252.898 272.836 252.887C272.824 252.877 272.829 252.878 272.847 252.905L273.263 252.627L273.678 252.348C273.585 252.21 273.414 252.006 273.138 251.957C272.82 251.901 272.588 252.078 272.462 252.221L272.838 252.551ZM273.263 252.627L272.847 252.905L273.06 253.222L273.475 252.944L273.89 252.665L273.678 252.348L273.263 252.627ZM273.475 252.944L273.06 253.222L273.272 253.539L273.688 253.26L274.103 252.982L273.89 252.665L273.475 252.944ZM273.688 253.26L273.272 253.539C273.436 253.782 273.766 254.133 274.245 254.001L274.113 253.519L273.98 253.037C274.013 253.028 274.051 253.025 274.089 253.032C274.125 253.038 274.149 253.05 274.16 253.056C274.17 253.062 274.168 253.063 274.156 253.051C274.144 253.038 274.126 253.017 274.103 252.982L273.688 253.26ZM274.113 253.519L274.245 254.001L274.457 253.943L274.325 253.461L274.193 252.979L273.98 253.037L274.113 253.519ZM274.325 253.461L274.457 253.943L274.67 253.885L274.537 253.403L274.406 252.921L274.193 252.979L274.325 253.461ZM274.537 253.403L274.67 253.885C274.752 253.863 274.83 253.857 274.907 253.865L274.963 253.368L275.018 252.872C274.812 252.848 274.606 252.866 274.406 252.921L274.537 253.403ZM274.963 253.368L274.907 253.865L275.119 253.889L275.175 253.392L275.231 252.895L275.018 252.872L274.963 253.368ZM275.175 253.392L275.119 253.889L275.332 253.913L275.388 253.416L275.443 252.919L275.231 252.895L275.175 253.392ZM275.388 253.416L275.332 253.913C275.565 253.939 275.792 253.901 276.006 253.811L275.813 253.35L275.619 252.889C275.549 252.919 275.493 252.925 275.443 252.919L275.388 253.416ZM275.813 253.35L276.006 253.811L276.219 253.722L276.025 253.261L275.831 252.8L275.619 252.889L275.813 253.35ZM276.025 253.261L276.219 253.722L276.431 253.632L276.238 253.171L276.044 252.711L275.831 252.8L276.025 253.261ZM276.238 253.171L276.431 253.632C276.426 253.634 276.415 253.638 276.4 253.64C276.384 253.642 276.368 253.641 276.354 253.638C276.326 253.633 276.324 253.623 276.348 253.643L276.663 253.254L276.977 252.866C276.725 252.661 276.39 252.565 276.044 252.711L276.238 253.171ZM276.663 253.254L276.348 253.643L276.56 253.815L276.875 253.427L277.19 253.038L276.977 252.866L276.663 253.254ZM276.875 253.427L276.56 253.815L276.773 253.987L277.088 253.599L277.402 253.211L277.19 253.038L276.875 253.427ZM277.088 253.599L276.773 253.987C276.892 254.084 277.015 254.201 277.142 254.342L277.512 254.006L277.883 253.67C277.727 253.498 277.567 253.344 277.402 253.211L277.088 253.599ZM277.512 254.006L277.142 254.342L277.355 254.576L277.725 254.24L278.095 253.904L277.883 253.67L277.512 254.006ZM277.725 254.24L277.355 254.576L277.567 254.81L277.938 254.474L278.308 254.138L278.095 253.904L277.725 254.24ZM277.938 254.474L277.567 254.81C277.64 254.891 277.754 254.987 277.914 255.03C278.09 255.077 278.259 255.044 278.396 254.967C278.619 254.841 278.744 254.606 278.819 254.439L278.363 254.235L277.906 254.03C277.879 254.09 277.859 254.123 277.85 254.136C277.838 254.153 277.853 254.125 277.904 254.096C277.97 254.059 278.068 254.036 278.174 254.064C278.263 254.088 278.306 254.136 278.308 254.138L277.938 254.474ZM278.363 254.235L278.819 254.439L279.031 253.965L278.575 253.761L278.119 253.556L277.906 254.03L278.363 254.235ZM278.575 253.761L279.031 253.965L279.244 253.492L278.787 253.287L278.331 253.082L278.119 253.556L278.575 253.761ZM278.787 253.287L279.244 253.492C279.27 253.432 279.288 253.405 279.293 253.399C279.302 253.387 279.273 253.432 279.197 253.464C279.154 253.482 279.101 253.495 279.042 253.494C278.982 253.492 278.931 253.477 278.892 253.459C278.822 253.426 278.798 253.385 278.808 253.399L279.213 253.105L279.617 252.811C279.556 252.728 279.461 252.622 279.32 252.555C279.158 252.478 278.973 252.472 278.803 252.545C278.656 252.608 278.557 252.714 278.494 252.797C278.429 252.884 278.376 252.984 278.331 253.082L278.787 253.287ZM279.213 253.105L278.808 253.399L279.021 253.692L279.425 253.397L279.829 253.103L279.617 252.811L279.213 253.105ZM279.425 253.397L279.021 253.692L279.233 253.984L279.638 253.69L280.042 253.395L279.829 253.103L279.425 253.397ZM279.638 253.69L279.233 253.984C279.33 254.117 279.472 254.268 279.674 254.344C279.907 254.431 280.14 254.39 280.327 254.273L280.063 253.849L279.798 253.425C279.814 253.415 279.847 253.399 279.894 253.393C279.944 253.386 279.99 253.394 280.026 253.407C280.042 253.414 280.054 253.42 280.062 253.425C280.066 253.427 280.069 253.429 280.07 253.431C280.072 253.432 280.073 253.433 280.073 253.433C280.073 253.433 280.072 253.432 280.071 253.431C280.069 253.429 280.067 253.427 280.064 253.424C280.059 253.417 280.051 253.408 280.042 253.395L279.638 253.69ZM280.063 253.849L280.327 254.273L280.54 254.141L280.275 253.716L280.01 253.292L279.798 253.425L280.063 253.849ZM280.275 253.716L280.54 254.141L280.752 254.008L280.488 253.584L280.223 253.16L280.01 253.292L280.275 253.716ZM280.488 253.584L280.752 254.008C280.827 253.961 280.875 253.954 280.904 253.954L280.913 253.455L280.921 252.955C280.666 252.95 280.431 253.029 280.223 253.16L280.488 253.584ZM280.913 253.455L280.904 253.954L281.117 253.958L281.125 253.458L281.133 252.958L280.921 252.955L280.913 253.455ZM281.125 253.458L281.117 253.958L281.329 253.961L281.338 253.461L281.346 252.961L281.133 252.958L281.125 253.458ZM281.338 253.461L281.329 253.961C281.681 253.967 281.952 253.765 282.139 253.55L281.763 253.221L281.386 252.893C281.341 252.944 281.312 252.963 281.304 252.968C281.301 252.97 281.303 252.968 281.311 252.966C281.32 252.963 281.332 252.961 281.346 252.961L281.338 253.461ZM281.763 253.221L282.139 253.55L282.352 253.306L281.975 252.977L281.598 252.649L281.386 252.893L281.763 253.221ZM281.975 252.977L282.352 253.306L282.564 253.062L282.188 252.734L281.811 252.405L281.598 252.649L281.975 252.977ZM282.188 252.734L282.564 253.062C282.6 253.022 282.593 253.046 282.538 253.062C282.508 253.07 282.473 253.074 282.436 253.068C282.401 253.063 282.376 253.052 282.364 253.045L282.613 252.611L282.861 252.177C282.686 252.078 282.477 252.039 282.262 252.101C282.065 252.157 281.917 252.283 281.811 252.405L282.188 252.734ZM282.613 252.611L282.364 253.045L282.577 253.167L282.825 252.733L283.073 252.299L282.861 252.177L282.613 252.611ZM282.825 252.733L282.577 253.167L282.789 253.288L283.037 252.854L283.286 252.42L283.073 252.299L282.825 252.733ZM283.037 252.854L282.789 253.288C282.784 253.285 282.807 253.298 282.854 253.358C282.898 253.416 282.953 253.504 283.014 253.628L283.463 253.407L283.911 253.187C283.761 252.881 283.564 252.579 283.286 252.42L283.037 252.854ZM283.463 253.407L283.014 253.628L283.226 254.06L283.675 253.839L284.124 253.618L283.911 253.187L283.463 253.407ZM283.675 253.839L283.226 254.06L283.439 254.492L283.888 254.271L284.336 254.05L284.124 253.618L283.675 253.839ZM283.888 254.271L283.439 254.492C283.485 254.585 283.54 254.679 283.609 254.762C283.675 254.842 283.776 254.939 283.921 254.994C284.082 255.056 284.254 255.05 284.407 254.982C284.545 254.922 284.641 254.825 284.704 254.745L284.313 254.434L283.921 254.124C283.913 254.133 283.939 254.096 284.005 254.067C284.088 254.03 284.189 254.026 284.279 254.061C284.317 254.075 284.344 254.093 284.358 254.105C284.366 254.111 284.371 254.116 284.374 254.119C284.376 254.121 284.377 254.122 284.378 254.123C284.379 254.124 284.379 254.124 284.379 254.124C284.379 254.124 284.379 254.124 284.378 254.123C284.377 254.122 284.377 254.121 284.375 254.119C284.373 254.116 284.37 254.111 284.366 254.105C284.358 254.092 284.348 254.074 284.336 254.05L283.888 254.271ZM284.313 254.434L284.704 254.745L284.917 254.476L284.525 254.166L284.133 253.855L283.921 254.124L284.313 254.434ZM284.525 254.166L284.917 254.476L285.129 254.208L284.738 253.897L284.346 253.587L284.133 253.855L284.525 254.166ZM284.738 253.897L285.129 254.208C285.164 254.165 285.108 254.26 284.957 254.262C284.802 254.264 284.742 254.167 284.774 254.206L285.163 253.892L285.551 253.577C285.441 253.441 285.239 253.258 284.943 253.262C284.65 253.266 284.453 253.451 284.346 253.587L284.738 253.897ZM285.163 253.892L284.774 254.206L284.986 254.469L285.375 254.154L285.764 253.84L285.551 253.577L285.163 253.892ZM285.375 254.154L284.986 254.469L285.199 254.731L285.588 254.417L285.976 254.102L285.764 253.84L285.375 254.154ZM285.588 254.417L285.199 254.731C285.248 254.792 285.312 254.862 285.392 254.919C285.465 254.971 285.618 255.061 285.82 255.036C286.049 255.008 286.184 254.857 286.247 254.749C286.306 254.648 286.33 254.542 286.343 254.468L285.85 254.384L285.357 254.301C285.353 254.325 285.354 254.294 285.383 254.245C285.416 254.188 285.514 254.066 285.698 254.044C285.857 254.024 285.96 254.096 285.975 254.107C285.998 254.123 285.998 254.129 285.976 254.102L285.588 254.417ZM285.85 254.384L286.343 254.468L286.393 254.173L285.9 254.09L285.407 254.006L285.357 254.301L285.85 254.384ZM285.9 254.09L286.4 254.09V253.5L285.9 253.5L285.4 253.5V254.09L285.9 254.09ZM285.9 253.5V254H286V253.5V253H285.9V253.5Z" fill="#DF2222"/>
<line x1="187.5" y1="179" x2="187.5" y2="226.011" stroke="#FAF9F7"/>
<line x1="185" y1="226.5" x2="187" y2="226.5" stroke="#FAF9F7"/>
<line x1="188" y1="178.5" x2="190" y2="178.5" stroke="#FAF9F7"/>
<line x1="188" y1="226.5" x2="190" y2="226.5" stroke="#FAF9F7"/>
<line x1="185" y1="178.5" x2="187" y2="178.5" stroke="#FAF9F7"/>
</svg>
