<?xml version="1.0" encoding="UTF-8" standalone="no"?>
<!DOCTYPE svg PUBLIC "-//W3C//DTD SVG 1.1//EN"
 "http://www.w3.org/Graphics/SVG/1.1/DTD/svg11.dtd">
<!-- Generated by graphviz version 14.1.5 (0)
 -->
<!-- Title: ged_detectors Pages: 1 -->
<svg width="1261pt" height="953pt"
 viewBox="0.00 0.00 1261.00 953.00" xmlns="http://www.w3.org/2000/svg" xmlns:xlink="http://www.w3.org/1999/xlink">
<g id="graph0" class="graph" transform="scale(1 1) rotate(0) translate(25.2 927.92)">
<title>ged_detectors</title>
<polygon fill="#fafdfc" stroke="none" points="-25.2,25.2 -25.2,-927.92 1236.2,-927.92 1236.2,25.2 -25.2,25.2"/>
<text xml:space="preserve" text-anchor="middle" x="605.5" y="-872.12" font-family="Alexandria Variable" font-size="28.00" fill="#171a18">Detector Collaboration and Data Dependencies</text>
<g id="clust1" class="cluster">
<title>cluster_rule</title>
<path fill="#ffffff" stroke="#d4e4dd" stroke-width="1.6" d="M502,-420.57C502,-420.57 953,-420.57 953,-420.57 959,-420.57 965,-426.57 965,-432.57 965,-432.57 965,-725.39 965,-725.39 965,-731.39 959,-737.39 953,-737.39 953,-737.39 502,-737.39 502,-737.39 496,-737.39 490,-731.39 490,-725.39 490,-725.39 490,-432.57 490,-432.57 490,-426.57 496,-420.57 502,-420.57"/>
<text xml:space="preserve" text-anchor="middle" x="727.5" y="-714.39" font-family="Alexandria Variable" font-size="20.00" fill="#171a18">Rule&#45;based lane</text>
</g>
<g id="clust2" class="cluster">
<title>cluster_lex</title>
<path fill="#ffffff" stroke="#d4e4dd" stroke-width="1.6" d="M20,-420.57C20,-420.57 470,-420.57 470,-420.57 476,-420.57 482,-426.57 482,-432.57 482,-432.57 482,-710.81 482,-710.81 482,-716.81 476,-722.81 470,-722.81 470,-722.81 20,-722.81 20,-722.81 14,-722.81 8,-716.81 8,-710.81 8,-710.81 8,-432.57 8,-432.57 8,-426.57 14,-420.57 20,-420.57"/>
<text xml:space="preserve" text-anchor="middle" x="245" y="-699.81" font-family="Alexandria Variable" font-size="20.00" fill="#171a18">Lexicon lane</text>
</g>
<g id="clust3" class="cluster">
<title>cluster_ml</title>
<path fill="#ffffff" stroke="#d4e4dd" stroke-width="1.6" d="M986,-232.57C986,-232.57 1191,-232.57 1191,-232.57 1197,-232.57 1203,-238.57 1203,-244.57 1203,-244.57 1203,-838.72 1203,-838.72 1203,-844.72 1197,-850.72 1191,-850.72 1191,-850.72 986,-850.72 986,-850.72 980,-850.72 974,-844.72 974,-838.72 974,-838.72 974,-244.57 974,-244.57 974,-238.57 980,-232.57 986,-232.57"/>
<text xml:space="preserve" text-anchor="middle" x="1088.5" y="-827.72" font-family="Alexandria Variable" font-size="20.00" fill="#171a18">Sequence&#45;labeler lane</text>
</g>
<!-- payload -->
<g id="node1" class="node">
<title>payload</title>
<path fill="#ffffff" stroke="#d4e4dd" stroke-width="1.8" d="M701.46,-828.55C701.46,-828.55 478.54,-828.55 478.54,-828.55 472.54,-828.55 466.54,-822.55 466.54,-816.55 466.54,-816.55 466.54,-765.89 466.54,-765.89 466.54,-759.89 472.54,-753.89 478.54,-753.89 478.54,-753.89 701.46,-753.89 701.46,-753.89 707.46,-753.89 713.46,-759.89 713.46,-765.89 713.46,-765.89 713.46,-816.55 713.46,-816.55 713.46,-822.55 707.46,-828.55 701.46,-828.55"/>
<text xml:space="preserve" text-anchor="start" x="544.25" y="-802.97" font-family="Alexandria Variable" font-weight="bold" font-size="10.00" fill="#396a50">SHARED PAYLOAD</text>
<text xml:space="preserve" text-anchor="start" x="486.5" y="-775.57" font-family="Alexandria Variable" font-weight="bold" font-size="12.00" fill="#171a18">tokens + morph_features + offsets</text>
</g>
<!-- rb_entry -->
<g id="node4" class="node">
<title>rb_entry</title>
<path fill="#dff4e8" stroke="#519872" stroke-width="1.8" d="M670.46,-681.31C670.46,-681.31 509.54,-681.31 509.54,-681.31 503.54,-681.31 497.54,-675.31 497.54,-669.31 497.54,-669.31 497.54,-657.31 497.54,-657.31 497.54,-651.31 503.54,-645.31 509.54,-645.31 509.54,-645.31 670.46,-645.31 670.46,-645.31 676.46,-645.31 682.46,-651.31 682.46,-657.31 682.46,-657.31 682.46,-669.31 682.46,-669.31 682.46,-675.31 676.46,-681.31 670.46,-681.31"/>
<text xml:space="preserve" text-anchor="middle" x="590" y="-659.41" font-family="Alexandria Variable" font-size="12.00" fill="#171a18">RuleBasedDetector.detect()</text>
</g>
<!-- payload&#45;&gt;rb_entry -->
<g id="edge16" class="edge">
<title>payload&#45;&gt;rb_entry</title>
<path fill="none" stroke="#396a50" stroke-width="2" d="M590,-753.19C590,-753.19 590,-692.68 590,-692.68"/>
<polygon fill="#396a50" stroke="#396a50" stroke-width="2" points="592.63,-692.68 590,-685.18 587.38,-692.68 592.63,-692.68"/>
</g>
<!-- lx_entry -->
<g id="node9" class="node">
<title>lx_entry</title>
<path fill="#dcefeb" stroke="#397785" stroke-width="1.8" d="M376.58,-681.31C376.58,-681.31 231.42,-681.31 231.42,-681.31 225.42,-681.31 219.42,-675.31 219.42,-669.31 219.42,-669.31 219.42,-657.31 219.42,-657.31 219.42,-651.31 225.42,-645.31 231.42,-645.31 231.42,-645.31 376.58,-645.31 376.58,-645.31 382.58,-645.31 388.58,-651.31 388.58,-657.31 388.58,-657.31 388.58,-669.31 388.58,-669.31 388.58,-675.31 382.58,-681.31 376.58,-681.31"/>
<text xml:space="preserve" text-anchor="middle" x="304" y="-659.41" font-family="Alexandria Variable" font-size="12.00" fill="#171a18">LexiconDetector.detect()</text>
</g>
<!-- payload&#45;&gt;lx_entry -->
<g id="edge17" class="edge">
<title>payload&#45;&gt;lx_entry</title>
<path fill="none" stroke="#396a50" stroke-width="2" d="M470.19,-753.1C470.19,-715.3 470.19,-663 470.19,-663 470.19,-663 399.57,-663 399.57,-663"/>
<polygon fill="#396a50" stroke="#396a50" stroke-width="2" points="399.57,-660.38 392.07,-663 399.57,-665.63 399.57,-660.38"/>
</g>
<!-- ml_entry -->
<g id="node14" class="node">
<title>ml_entry</title>
<path fill="#f3eddd" stroke="#d67545" stroke-width="1.8" d="M1119.09,-681.31C1119.09,-681.31 1000.91,-681.31 1000.91,-681.31 994.91,-681.31 988.91,-675.31 988.91,-669.31 988.91,-669.31 988.91,-657.31 988.91,-657.31 988.91,-651.31 994.91,-645.31 1000.91,-645.31 1000.91,-645.31 1119.09,-645.31 1119.09,-645.31 1125.09,-645.31 1131.09,-651.31 1131.09,-657.31 1131.09,-657.31 1131.09,-669.31 1131.09,-669.31 1131.09,-675.31 1125.09,-681.31 1119.09,-681.31"/>
<text xml:space="preserve" text-anchor="middle" x="1060" y="-659.41" font-family="Alexandria Variable" font-size="12.00" fill="#171a18">MLDetector.detect()</text>
</g>
<!-- payload&#45;&gt;ml_entry -->
<g id="edge18" class="edge">
<title>payload&#45;&gt;ml_entry</title>
<path fill="none" stroke="#396a50" stroke-width="2" d="M714.32,-764C846.38,-764 1036.31,-764 1036.31,-764 1036.31,-764 1036.31,-692.31 1036.31,-692.31"/>
<polygon fill="#396a50" stroke="#396a50" stroke-width="2" points="1038.93,-692.31 1036.31,-684.81 1033.68,-692.31 1038.93,-692.31"/>
</g>
<!-- fusion -->
<g id="node2" class="node">
<title>fusion</title>
<path fill="#f6d6e4" stroke="#a13d63" stroke-width="1.8" d="M927.84,-182.57C927.84,-182.57 596.16,-182.57 596.16,-182.57 590.16,-182.57 584.16,-176.57 584.16,-170.57 584.16,-170.57 584.16,-119.16 584.16,-119.16 584.16,-113.16 590.16,-107.16 596.16,-107.16 596.16,-107.16 927.84,-107.16 927.84,-107.16 933.84,-107.16 939.84,-113.16 939.84,-119.16 939.84,-119.16 939.84,-170.57 939.84,-170.57 939.84,-176.57 933.84,-182.57 927.84,-182.57"/>
<text xml:space="preserve" text-anchor="start" x="721.5" y="-155.09" font-family="Alexandria Variable" font-weight="bold" font-size="12.00" fill="#171a18">Fusion sweep</text>
<text xml:space="preserve" text-anchor="start" x="604.12" y="-127.24" font-family="Alexandria Variable" font-size="11.00" fill="#596b62">resolve overlaps, merge sources, suppress weaker conflicts</text>
</g>
<!-- final -->
<g id="node3" class="node">
<title>final</title>
<path fill="#ffffff" stroke="#d4e4dd" stroke-width="1.8" d="M851.34,-49.16C851.34,-49.16 672.66,-49.16 672.66,-49.16 666.66,-49.16 660.66,-43.16 660.66,-37.16 660.66,-37.16 660.66,-12 660.66,-12 660.66,-6 666.66,0 672.66,0 672.66,0 851.34,0 851.34,0 857.34,0 863.34,-6 863.34,-12 863.34,-12 863.34,-37.16 863.34,-37.16 863.34,-43.16 857.34,-49.16 851.34,-49.16"/>
<text xml:space="preserve" text-anchor="start" x="680.62" y="-21.68" font-family="Alexandria Variable" font-weight="bold" font-size="12.00" fill="#171a18">Final merged GED error set</text>
</g>
<!-- fusion&#45;&gt;final -->
<g id="edge22" class="edge">
<title>fusion&#45;&gt;final</title>
<path fill="none" stroke="#396a50" stroke-width="2" d="M762,-106.48C762,-106.48 762,-60.26 762,-60.26"/>
<polygon fill="#396a50" stroke="#396a50" stroke-width="2" points="764.63,-60.26 762,-52.76 759.38,-60.26 764.63,-60.26"/>
</g>
<!-- registry -->
<g id="node5" class="node">
<title>registry</title>
<path fill="#dff4e8" stroke="#519872" stroke-width="1.8" d="M825.96,-565.65C825.96,-565.65 698.04,-565.65 698.04,-565.65 692.04,-565.65 686.04,-559.65 686.04,-553.65 686.04,-553.65 686.04,-541.65 686.04,-541.65 686.04,-535.65 692.04,-529.65 698.04,-529.65 698.04,-529.65 825.96,-529.65 825.96,-529.65 831.96,-529.65 837.96,-535.65 837.96,-541.65 837.96,-541.65 837.96,-553.65 837.96,-553.65 837.96,-559.65 831.96,-565.65 825.96,-565.65"/>
<text xml:space="preserve" text-anchor="middle" x="762" y="-543.75" font-family="Alexandria Variable" font-size="12.00" fill="#171a18">rule_registry.run_all()</text>
</g>
<!-- rb_entry&#45;&gt;registry -->
<g id="edge1" class="edge">
<title>rb_entry&#45;&gt;registry</title>
<path fill="none" stroke="#396a50" stroke-width="2" d="M683.08,-663C693.1,-663 699.75,-663 699.75,-663 699.75,-663 699.75,-576.97 699.75,-576.97"/>
<polygon fill="#396a50" stroke="#396a50" stroke-width="2" points="702.38,-576.97 699.75,-569.47 697.13,-576.97 702.38,-576.97"/>
</g>
<!-- rb_spans -->
<g id="node8" class="node">
<title>rb_spans</title>
<path fill="#dff4e8" stroke="#519872" stroke-width="1.8" d="M811.34,-464.57C811.34,-464.57 712.66,-464.57 712.66,-464.57 706.66,-464.57 700.66,-458.57 700.66,-452.57 700.66,-452.57 700.66,-440.57 700.66,-440.57 700.66,-434.57 706.66,-428.57 712.66,-428.57 712.66,-428.57 811.34,-428.57 811.34,-428.57 817.34,-428.57 823.34,-434.57 823.34,-440.57 823.34,-440.57 823.34,-452.57 823.34,-452.57 823.34,-458.57 817.34,-464.57 811.34,-464.57"/>
<text xml:space="preserve" text-anchor="middle" x="762" y="-442.67" font-family="Alexandria Variable" font-size="12.00" fill="#171a18">Tier 1 ErrorSpans</text>
</g>
<!-- registry&#45;&gt;rb_spans -->
<g id="edge4" class="edge">
<title>registry&#45;&gt;rb_spans</title>
<path fill="none" stroke="#396a50" stroke-width="2" d="M762,-529.11C762,-529.11 762,-475.86 762,-475.86"/>
<polygon fill="#396a50" stroke="#396a50" stroke-width="2" points="764.63,-475.86 762,-468.36 759.38,-475.86 764.63,-475.86"/>
</g>
<!-- yaml -->
<g id="node6" class="node">
<title>yaml</title>
<path fill="#f6d6e4" stroke="#a13d63" stroke-width="1.8" d="M797.46,-681.31C797.46,-681.31 726.54,-681.31 726.54,-681.31 720.54,-681.31 714.54,-675.31 714.54,-669.31 714.54,-669.31 714.54,-657.31 714.54,-657.31 714.54,-651.31 720.54,-645.31 726.54,-645.31 726.54,-645.31 797.46,-645.31 797.46,-645.31 803.46,-645.31 809.46,-651.31 809.46,-657.31 809.46,-657.31 809.46,-669.31 809.46,-669.31 809.46,-675.31 803.46,-681.31 797.46,-681.31"/>
<text xml:space="preserve" text-anchor="middle" x="762" y="-659.41" font-family="Alexandria Variable" font-size="12.00" fill="#171a18">rules/*.yaml</text>
</g>
<!-- yaml&#45;&gt;registry -->
<g id="edge2" class="edge">
<title>yaml&#45;&gt;registry</title>
<path fill="none" stroke="#396a50" stroke-width="2" d="M762,-644.47C762,-644.47 762,-577.01 762,-577.01"/>
<polygon fill="#396a50" stroke="#396a50" stroke-width="2" points="764.63,-577.01 762,-569.51 759.38,-577.01 764.63,-577.01"/>
</g>
<!-- py_rules -->
<g id="node7" class="node">
<title>py_rules</title>
<path fill="#f6d6e4" stroke="#a13d63" stroke-width="1.8" d="M944.59,-695.89C944.59,-695.89 853.41,-695.89 853.41,-695.89 847.41,-695.89 841.41,-689.89 841.41,-683.89 841.41,-683.89 841.41,-642.73 841.41,-642.73 841.41,-636.73 847.41,-630.73 853.41,-630.73 853.41,-630.73 944.59,-630.73 944.59,-630.73 950.59,-630.73 956.59,-636.73 956.59,-642.73 956.59,-642.73 956.59,-683.89 956.59,-683.89 956.59,-689.89 950.59,-695.89 944.59,-695.89"/>
<text xml:space="preserve" text-anchor="middle" x="899" y="-674.41" font-family="Alexandria Variable" font-size="12.00" fill="#171a18">orthography.py</text>
<text xml:space="preserve" text-anchor="middle" x="899" y="-659.41" font-family="Alexandria Variable" font-size="12.00" fill="#171a18">punctuation.py</text>
<text xml:space="preserve" text-anchor="middle" x="899" y="-644.41" font-family="Alexandria Variable" font-size="12.00" fill="#171a18">syntax.py</text>
</g>
<!-- py_rules&#45;&gt;registry -->
<g id="edge3" class="edge">
<title>py_rules&#45;&gt;registry</title>
<path fill="none" stroke="#396a50" stroke-width="2" d="M840.79,-638C830.88,-638 823.71,-638 823.71,-638 823.71,-638 823.71,-576.9 823.71,-576.9"/>
<polygon fill="#396a50" stroke="#396a50" stroke-width="2" points="826.34,-576.9 823.71,-569.4 821.09,-576.9 826.34,-576.9"/>
</g>
<!-- rb_spans&#45;&gt;fusion -->
<g id="edge19" class="edge">
<title>rb_spans&#45;&gt;fusion</title>
<path fill="none" stroke="#396a50" stroke-width="2" d="M762,-427.7C762,-427.7 762,-193.87 762,-193.87"/>
<polygon fill="#396a50" stroke="#396a50" stroke-width="2" points="764.63,-193.87 762,-186.37 759.38,-193.87 764.63,-193.87"/>
</g>
<!-- patterns -->
<g id="node10" class="node">
<title>patterns</title>
<path fill="#dcefeb" stroke="#397785" stroke-width="1.8" d="M126.34,-565.65C126.34,-565.65 27.66,-565.65 27.66,-565.65 21.66,-565.65 15.66,-559.65 15.66,-553.65 15.66,-553.65 15.66,-541.65 15.66,-541.65 15.66,-535.65 21.66,-529.65 27.66,-529.65 27.66,-529.65 126.34,-529.65 126.34,-529.65 132.34,-529.65 138.34,-535.65 138.34,-541.65 138.34,-541.65 138.34,-553.65 138.34,-553.65 138.34,-559.65 132.34,-565.65 126.34,-565.65"/>
<text xml:space="preserve" text-anchor="middle" x="77" y="-543.75" font-family="Alexandria Variable" font-size="12.00" fill="#171a18">Curated patterns</text>
</g>
<!-- lx_entry&#45;&gt;patterns -->
<g id="edge5" class="edge">
<title>lx_entry&#45;&gt;patterns</title>
<path fill="none" stroke="#396a50" stroke-width="2" d="M218.83,-663C154.42,-663 77,-663 77,-663 77,-663 77,-576.97 77,-576.97"/>
<polygon fill="#396a50" stroke="#396a50" stroke-width="2" points="79.63,-576.97 77,-569.47 74.38,-576.97 79.63,-576.97"/>
</g>
<!-- trie -->
<g id="node11" class="node">
<title>trie</title>
<path fill="#dcefeb" stroke="#397785" stroke-width="1.8" d="M273.96,-572.73C273.96,-572.73 182.04,-572.73 182.04,-572.73 176.04,-572.73 170.04,-566.73 170.04,-560.73 170.04,-560.73 170.04,-534.57 170.04,-534.57 170.04,-528.57 176.04,-522.57 182.04,-522.57 182.04,-522.57 273.96,-522.57 273.96,-522.57 279.96,-522.57 285.96,-528.57 285.96,-534.57 285.96,-534.57 285.96,-560.73 285.96,-560.73 285.96,-566.73 279.96,-572.73 273.96,-572.73"/>
<text xml:space="preserve" text-anchor="middle" x="228" y="-551.25" font-family="Alexandria Variable" font-size="12.00" fill="#171a18">Processed tries</text>
<text xml:space="preserve" text-anchor="middle" x="228" y="-536.25" font-family="Alexandria Variable" font-size="12.00" fill="#171a18">words + entities</text>
</g>
<!-- lx_entry&#45;&gt;trie -->
<g id="edge6" class="edge">
<title>lx_entry&#45;&gt;trie</title>
<path fill="none" stroke="#396a50" stroke-width="2" d="M252.69,-644.47C252.69,-644.47 252.69,-583.92 252.69,-583.92"/>
<polygon fill="#396a50" stroke="#396a50" stroke-width="2" points="255.31,-583.92 252.69,-576.42 250.06,-583.92 255.31,-583.92"/>
</g>
<!-- plausibility -->
<g id="node12" class="node">
<title>plausibility</title>
<path fill="#dcefeb" stroke="#397785" stroke-width="1.8" d="M461.83,-565.65C461.83,-565.65 330.17,-565.65 330.17,-565.65 324.17,-565.65 318.17,-559.65 318.17,-553.65 318.17,-553.65 318.17,-541.65 318.17,-541.65 318.17,-535.65 324.17,-529.65 330.17,-529.65 330.17,-529.65 461.83,-529.65 461.83,-529.65 467.83,-529.65 473.83,-535.65 473.83,-541.65 473.83,-541.65 473.83,-553.65 473.83,-553.65 473.83,-559.65 467.83,-565.65 461.83,-565.65"/>
<text xml:space="preserve" text-anchor="middle" x="396" y="-543.75" font-family="Alexandria Variable" font-size="12.00" fill="#171a18">Morph plausibility gate</text>
</g>
<!-- lx_entry&#45;&gt;plausibility -->
<g id="edge7" class="edge">
<title>lx_entry&#45;&gt;plausibility</title>
<path fill="none" stroke="#396a50" stroke-width="2" d="M353.38,-644.47C353.38,-644.47 353.38,-577.01 353.38,-577.01"/>
<polygon fill="#396a50" stroke="#396a50" stroke-width="2" points="356,-577.01 353.38,-569.51 350.75,-577.01 356,-577.01"/>
</g>
<!-- lx_spans -->
<g id="node13" class="node">
<title>lx_spans</title>
<path fill="#dcefeb" stroke="#397785" stroke-width="1.8" d="M367.71,-464.57C367.71,-464.57 256.29,-464.57 256.29,-464.57 250.29,-464.57 244.29,-458.57 244.29,-452.57 244.29,-452.57 244.29,-440.57 244.29,-440.57 244.29,-434.57 250.29,-428.57 256.29,-428.57 256.29,-428.57 367.71,-428.57 367.71,-428.57 373.71,-428.57 379.71,-434.57 379.71,-440.57 379.71,-440.57 379.71,-452.57 379.71,-452.57 379.71,-458.57 373.71,-464.57 367.71,-464.57"/>
<text xml:space="preserve" text-anchor="middle" x="312" y="-442.67" font-family="Alexandria Variable" font-size="12.00" fill="#171a18">Tier 1/2 ErrorSpans</text>
</g>
<!-- patterns&#45;&gt;lx_spans -->
<g id="edge8" class="edge">
<title>patterns&#45;&gt;lx_spans</title>
<path fill="none" stroke="#396a50" stroke-width="2" d="M77,-529.19C77,-500.13 77,-447 77,-447 77,-447 232.87,-447 232.87,-447"/>
<polygon fill="#396a50" stroke="#396a50" stroke-width="2" points="232.87,-449.63 240.37,-447 232.87,-444.38 232.87,-449.63"/>
</g>
<!-- trie&#45;&gt;lx_spans -->
<g id="edge9" class="edge">
<title>trie&#45;&gt;lx_spans</title>
<path fill="none" stroke="#396a50" stroke-width="2" d="M265.12,-521.88C265.12,-521.88 265.12,-475.8 265.12,-475.8"/>
<polygon fill="#396a50" stroke="#396a50" stroke-width="2" points="267.75,-475.8 265.13,-468.3 262.5,-475.8 267.75,-475.8"/>
</g>
<!-- plausibility&#45;&gt;lx_spans -->
<g id="edge10" class="edge">
<title>plausibility&#45;&gt;lx_spans</title>
<path fill="none" stroke="#396a50" stroke-width="2" d="M348.94,-529.11C348.94,-529.11 348.94,-475.86 348.94,-475.86"/>
<polygon fill="#396a50" stroke="#396a50" stroke-width="2" points="351.56,-475.86 348.94,-468.36 346.31,-475.86 351.56,-475.86"/>
</g>
<!-- lx_spans&#45;&gt;fusion -->
<g id="edge20" class="edge">
<title>lx_spans&#45;&gt;fusion</title>
<path fill="none" stroke="#396a50" stroke-width="2" d="M380.54,-447C474.9,-447 633.31,-447 633.31,-447 633.31,-447 633.31,-193.96 633.31,-193.96"/>
<polygon fill="#396a50" stroke="#396a50" stroke-width="2" points="635.94,-193.96 633.31,-186.46 630.69,-193.96 635.94,-193.96"/>
</g>
<!-- feats -->
<g id="node16" class="node">
<title>feats</title>
<path fill="#f3eddd" stroke="#d67545" stroke-width="1.8" d="M1118.46,-565.65C1118.46,-565.65 999.54,-565.65 999.54,-565.65 993.54,-565.65 987.54,-559.65 987.54,-553.65 987.54,-553.65 987.54,-541.65 987.54,-541.65 987.54,-535.65 993.54,-529.65 999.54,-529.65 999.54,-529.65 1118.46,-529.65 1118.46,-529.65 1124.46,-529.65 1130.46,-535.65 1130.46,-541.65 1130.46,-541.65 1130.46,-553.65 1130.46,-553.65 1130.46,-559.65 1124.46,-565.65 1118.46,-565.65"/>
<text xml:space="preserve" text-anchor="middle" x="1059" y="-543.75" font-family="Alexandria Variable" font-size="12.00" fill="#171a18">sentence_features()</text>
</g>
<!-- ml_entry&#45;&gt;feats -->
<g id="edge12" class="edge">
<title>ml_entry&#45;&gt;feats</title>
<path fill="none" stroke="#396a50" stroke-width="2" d="M1059.69,-644.47C1059.69,-644.47 1059.69,-577.01 1059.69,-577.01"/>
<polygon fill="#396a50" stroke="#396a50" stroke-width="2" points="1062.31,-577.01 1059.69,-569.51 1057.06,-577.01 1062.31,-577.01"/>
</g>
<!-- bundle -->
<g id="node15" class="node">
<title>bundle</title>
<path fill="#f3eddd" stroke="#d67545" stroke-width="1.8" d="M1125.84,-809.22C1125.84,-809.22 994.16,-809.22 994.16,-809.22 988.16,-809.22 982.16,-803.22 982.16,-797.22 982.16,-797.22 982.16,-785.22 982.16,-785.22 982.16,-779.22 988.16,-773.22 994.16,-773.22 994.16,-773.22 1125.84,-773.22 1125.84,-773.22 1131.84,-773.22 1137.84,-779.22 1137.84,-785.22 1137.84,-785.22 1137.84,-797.22 1137.84,-797.22 1137.84,-803.22 1131.84,-809.22 1125.84,-809.22"/>
<text xml:space="preserve" text-anchor="middle" x="1060" y="-787.32" font-family="Alexandria Variable" font-size="12.00" fill="#171a18">CRF bundle + manifest</text>
</g>
<!-- bundle&#45;&gt;ml_entry -->
<g id="edge11" class="edge">
<title>bundle&#45;&gt;ml_entry</title>
<path fill="none" stroke="#396a50" stroke-width="2" d="M1083.69,-772.35C1083.69,-772.35 1083.69,-692.37 1083.69,-692.37"/>
<polygon fill="#396a50" stroke="#396a50" stroke-width="2" points="1086.32,-692.37 1083.7,-684.87 1081.07,-692.37 1086.32,-692.37"/>
</g>
<!-- crf -->
<g id="node17" class="node">
<title>crf</title>
<path fill="#f3eddd" stroke="#d67545" stroke-width="1.8" d="M1115.96,-464.57C1115.96,-464.57 1000.04,-464.57 1000.04,-464.57 994.04,-464.57 988.04,-458.57 988.04,-452.57 988.04,-452.57 988.04,-440.57 988.04,-440.57 988.04,-434.57 994.04,-428.57 1000.04,-428.57 1000.04,-428.57 1115.96,-428.57 1115.96,-428.57 1121.96,-428.57 1127.96,-434.57 1127.96,-440.57 1127.96,-440.57 1127.96,-452.57 1127.96,-452.57 1127.96,-458.57 1121.96,-464.57 1115.96,-464.57"/>
<text xml:space="preserve" text-anchor="middle" x="1058" y="-442.67" font-family="Alexandria Variable" font-size="12.00" fill="#171a18">predict_marginals()</text>
</g>
<!-- feats&#45;&gt;crf -->
<g id="edge13" class="edge">
<title>feats&#45;&gt;crf</title>
<path fill="none" stroke="#396a50" stroke-width="2" d="M1058,-529.11C1058,-529.11 1058,-475.86 1058,-475.86"/>
<polygon fill="#396a50" stroke="#396a50" stroke-width="2" points="1060.63,-475.86 1058,-468.36 1055.38,-475.86 1060.63,-475.86"/>
</g>
<!-- threshold -->
<g id="node18" class="node">
<title>threshold</title>
<path fill="#f3eddd" stroke="#d67545" stroke-width="1.8" d="M1121.21,-370.57C1121.21,-370.57 994.79,-370.57 994.79,-370.57 988.79,-370.57 982.79,-364.57 982.79,-358.57 982.79,-358.57 982.79,-346.57 982.79,-346.57 982.79,-340.57 988.79,-334.57 994.79,-334.57 994.79,-334.57 1121.21,-334.57 1121.21,-334.57 1127.21,-334.57 1133.21,-340.57 1133.21,-346.57 1133.21,-346.57 1133.21,-358.57 1133.21,-358.57 1133.21,-364.57 1127.21,-370.57 1121.21,-370.57"/>
<text xml:space="preserve" text-anchor="middle" x="1058" y="-348.67" font-family="Alexandria Variable" font-size="12.00" fill="#171a18">Confidence threshold</text>
</g>
<!-- crf&#45;&gt;threshold -->
<g id="edge14" class="edge">
<title>crf&#45;&gt;threshold</title>
<path fill="none" stroke="#396a50" stroke-width="2" d="M1058,-428C1058,-428 1058,-381.95 1058,-381.95"/>
<polygon fill="#396a50" stroke="#396a50" stroke-width="2" points="1060.63,-381.95 1058,-374.45 1055.38,-381.95 1060.63,-381.95"/>
</g>
<!-- ml_spans -->
<g id="node19" class="node">
<title>ml_spans</title>
<path fill="#f3eddd" stroke="#d67545" stroke-width="1.8" d="M1099.34,-276.57C1099.34,-276.57 1000.66,-276.57 1000.66,-276.57 994.66,-276.57 988.66,-270.57 988.66,-264.57 988.66,-264.57 988.66,-252.57 988.66,-252.57 988.66,-246.57 994.66,-240.57 1000.66,-240.57 1000.66,-240.57 1099.34,-240.57 1099.34,-240.57 1105.34,-240.57 1111.34,-246.57 1111.34,-252.57 1111.34,-252.57 1111.34,-264.57 1111.34,-264.57 1111.34,-270.57 1105.34,-276.57 1099.34,-276.57"/>
<text xml:space="preserve" text-anchor="middle" x="1050" y="-254.67" font-family="Alexandria Variable" font-size="12.00" fill="#171a18">Tier 3 ErrorSpans</text>
</g>
<!-- threshold&#45;&gt;ml_spans -->
<g id="edge15" class="edge">
<title>threshold&#45;&gt;ml_spans</title>
<path fill="none" stroke="#396a50" stroke-width="2" d="M1050,-334C1050,-334 1050,-287.95 1050,-287.95"/>
<polygon fill="#396a50" stroke="#396a50" stroke-width="2" points="1052.63,-287.95 1050,-280.45 1047.38,-287.95 1052.63,-287.95"/>
</g>
<!-- ml_spans&#45;&gt;fusion -->
<g id="edge21" class="edge">
<title>ml_spans&#45;&gt;fusion</title>
<path fill="none" stroke="#396a50" stroke-width="2" d="M987.93,-259C943.18,-259 890.62,-259 890.62,-259 890.62,-259 890.62,-193.71 890.62,-193.71"/>
<polygon fill="#396a50" stroke="#396a50" stroke-width="2" points="893.25,-193.71 890.63,-186.21 888,-193.71 893.25,-193.71"/>
</g>
</g>
</svg>
