<?xml version="1.0" encoding="UTF-8" standalone="no"?>
<!DOCTYPE svg PUBLIC "-//W3C//DTD SVG 1.1//EN"
 "http://www.w3.org/Graphics/SVG/1.1/DTD/svg11.dtd">
<!-- Generated by graphviz version 14.1.5 (0)
 -->
<!-- Title: ged_runtime Pages: 1 -->
<svg width="773pt" height="1006pt"
 viewBox="0.00 0.00 773.00 1006.00" xmlns="http://www.w3.org/2000/svg" xmlns:xlink="http://www.w3.org/1999/xlink">
<g id="graph0" class="graph" transform="scale(1 1) rotate(0) translate(25.2 980.84)">
<title>ged_runtime</title>
<polygon fill="#fafdfc" stroke="none" points="-25.2,25.2 -25.2,-980.84 748.16,-980.84 748.16,25.2 -25.2,25.2"/>
<text xml:space="preserve" text-anchor="middle" x="361.48" y="-925.04" font-family="Alexandria Variable" font-size="28.00" fill="#171a18">GED in the Baligh Runtime</text>
<g id="clust1" class="cluster">
<title>cluster_pre</title>
<path fill="#ffffff" stroke="#d4e4dd" stroke-width="1.6" d="M24.96,-692.23C24.96,-692.23 571.96,-692.23 571.96,-692.23 577.96,-692.23 583.96,-698.23 583.96,-704.23 583.96,-704.23 583.96,-765.73 583.96,-765.73 583.96,-771.73 577.96,-777.73 571.96,-777.73 571.96,-777.73 24.96,-777.73 24.96,-777.73 18.96,-777.73 12.96,-771.73 12.96,-765.73 12.96,-765.73 12.96,-704.23 12.96,-704.23 12.96,-698.23 18.96,-692.23 24.96,-692.23"/>
<text xml:space="preserve" text-anchor="middle" x="298.46" y="-754.73" font-family="Alexandria Variable" font-size="20.00" fill="#171a18">Preprocessing</text>
</g>
<g id="clust3" class="cluster">
<title>cluster_ged</title>
<path fill="#ffffff" stroke="#d4e4dd" stroke-width="1.6" d="M294.96,-264.82C294.96,-264.82 702.96,-264.82 702.96,-264.82 708.96,-264.82 714.96,-270.82 714.96,-276.82 714.96,-276.82 714.96,-532.32 714.96,-532.32 714.96,-538.32 708.96,-544.32 702.96,-544.32 702.96,-544.32 294.96,-544.32 294.96,-544.32 288.96,-544.32 282.96,-538.32 282.96,-532.32 282.96,-532.32 282.96,-276.82 282.96,-276.82 282.96,-270.82 288.96,-264.82 294.96,-264.82"/>
<text xml:space="preserve" text-anchor="middle" x="498.96" y="-521.32" font-family="Alexandria Variable" font-size="20.00" fill="#171a18">GED Service</text>
</g>
<!-- user -->
<g id="node1" class="node">
<title>user</title>
<path fill="#f3eddd" stroke="#d67545" stroke-width="1.8" d="M113.92,-911.64C113.92,-911.64 12,-911.64 12,-911.64 6,-911.64 0,-905.64 0,-899.64 0,-899.64 0,-809.23 0,-809.23 0,-803.23 6,-797.23 12,-797.23 12,-797.23 113.92,-797.23 113.92,-797.23 119.92,-797.23 125.92,-803.23 125.92,-809.23 125.92,-809.23 125.92,-899.64 125.92,-899.64 125.92,-905.64 119.92,-911.64 113.92,-911.64"/>
<text xml:space="preserve" text-anchor="start" x="45.71" y="-885.06" font-family="Alexandria Variable" font-weight="bold" font-size="10.00" fill="#d67545">INPUT</text>
<text xml:space="preserve" text-anchor="start" x="21.71" y="-849.96" font-family="Alexandria Variable" font-weight="bold" font-size="18.00" fill="#171a18">المستخدم</text>
<text xml:space="preserve" text-anchor="start" x="20.96" y="-818.31" font-family="Alexandria Variable" font-size="11.00" fill="#596b62">Raw Arabic text</text>
</g>
<!-- norm -->
<g id="node6" class="node">
<title>norm</title>
<path fill="#dcefeb" stroke="#397785" stroke-width="1.8" d="M93.17,-736.23C93.17,-736.23 32.75,-736.23 32.75,-736.23 26.75,-736.23 20.75,-730.23 20.75,-724.23 20.75,-724.23 20.75,-712.23 20.75,-712.23 20.75,-706.23 26.75,-700.23 32.75,-700.23 32.75,-700.23 93.17,-700.23 93.17,-700.23 99.17,-700.23 105.17,-706.23 105.17,-712.23 105.17,-712.23 105.17,-724.23 105.17,-724.23 105.17,-730.23 99.17,-736.23 93.17,-736.23"/>
<text xml:space="preserve" text-anchor="middle" x="62.96" y="-714.33" font-family="Alexandria Variable" font-size="12.00" fill="#171a18">Normalize</text>
</g>
<!-- user&#45;&gt;norm -->
<g id="edge10" class="edge">
<title>user&#45;&gt;norm</title>
<path fill="none" stroke="#d67545" stroke-width="2" d="M62.96,-796.67C62.96,-796.67 62.96,-747.4 62.96,-747.4"/>
<polygon fill="#d67545" stroke="#d67545" stroke-width="2" points="65.59,-747.4 62.96,-739.9 60.34,-747.4 65.59,-747.4"/>
</g>
<!-- ged_input -->
<g id="node2" class="node">
<title>ged_input</title>
<path fill="#ffffff" stroke="#d4e4dd" stroke-width="1.8" d="M652.8,-639.23C652.8,-639.23 387.12,-639.23 387.12,-639.23 381.12,-639.23 375.12,-633.23 375.12,-627.23 375.12,-627.23 375.12,-575.82 375.12,-575.82 375.12,-569.82 381.12,-563.82 387.12,-563.82 387.12,-563.82 652.8,-563.82 652.8,-563.82 658.8,-563.82 664.8,-569.82 664.8,-575.82 664.8,-575.82 664.8,-627.23 664.8,-627.23 664.8,-633.23 658.8,-639.23 652.8,-639.23"/>
<text xml:space="preserve" text-anchor="start" x="489.96" y="-611.75" font-family="Alexandria Variable" font-weight="bold" font-size="12.00" fill="#171a18">GEDInput</text>
<text xml:space="preserve" text-anchor="start" x="395.09" y="-583.9" font-family="Alexandria Variable" font-size="11.00" fill="#596b62">text, normalized_text, tokens, morph_features</text>
</g>
<!-- orchestrator -->
<g id="node10" class="node">
<title>orchestrator</title>
<path fill="#dff4e8" stroke="#519872" stroke-width="1.8" d="M583.55,-502.82C583.55,-502.82 456.38,-502.82 456.38,-502.82 450.38,-502.82 444.38,-496.82 444.38,-490.82 444.38,-490.82 444.38,-478.82 444.38,-478.82 444.38,-472.82 450.38,-466.82 456.38,-466.82 456.38,-466.82 583.55,-466.82 583.55,-466.82 589.55,-466.82 595.55,-472.82 595.55,-478.82 595.55,-478.82 595.55,-490.82 595.55,-490.82 595.55,-496.82 589.55,-502.82 583.55,-502.82"/>
<text xml:space="preserve" text-anchor="middle" x="519.96" y="-480.92" font-family="Alexandria Variable" font-size="12.00" fill="#171a18">GEDService.process()</text>
</g>
<!-- ged_input&#45;&gt;orchestrator -->
<g id="edge12" class="edge">
<title>ged_input&#45;&gt;orchestrator</title>
<path fill="none" stroke="#396a50" stroke-width="2" d="M519.96,-562.99C519.96,-562.99 519.96,-514.21 519.96,-514.21"/>
<polygon fill="#396a50" stroke="#396a50" stroke-width="2" points="522.59,-514.21 519.96,-506.71 517.34,-514.21 522.59,-514.21"/>
</g>
<!-- ged_output -->
<g id="node3" class="node">
<title>ged_output</title>
<path fill="#ffffff" stroke="#d4e4dd" stroke-width="1.8" d="M642.3,-211.82C642.3,-211.82 397.62,-211.82 397.62,-211.82 391.62,-211.82 385.62,-205.82 385.62,-199.82 385.62,-199.82 385.62,-148.41 385.62,-148.41 385.62,-142.41 391.62,-136.41 397.62,-136.41 397.62,-136.41 642.3,-136.41 642.3,-136.41 648.3,-136.41 654.3,-142.41 654.3,-148.41 654.3,-148.41 654.3,-199.82 654.3,-199.82 654.3,-205.82 648.3,-211.82 642.3,-211.82"/>
<text xml:space="preserve" text-anchor="start" x="466.71" y="-184.34" font-family="Alexandria Variable" font-weight="bold" font-size="12.00" fill="#171a18">GEDOutput.errors</text>
<text xml:space="preserve" text-anchor="start" x="405.59" y="-156.49" font-family="Alexandria Variable" font-size="11.00" fill="#596b62">merged spans + confidence + source + tier</text>
</g>
<!-- ui -->
<g id="node4" class="node">
<title>ui</title>
<path fill="#f3eddd" stroke="#d67545" stroke-width="1.8" d="M480.92,-75.41C480.92,-75.41 399,-75.41 399,-75.41 393,-75.41 387,-69.41 387,-63.41 387,-63.41 387,-12 387,-12 387,-6 393,0 399,0 399,0 480.92,0 480.92,0 486.92,0 492.92,-6 492.92,-12 492.92,-12 492.92,-63.41 492.92,-63.41 492.92,-69.41 486.92,-75.41 480.92,-75.41"/>
<text xml:space="preserve" text-anchor="start" x="432.09" y="-47.93" font-family="Alexandria Variable" font-weight="bold" font-size="12.00" fill="#171a18">UI</text>
<text xml:space="preserve" text-anchor="start" x="406.96" y="-20.08" font-family="Alexandria Variable" font-size="11.00" fill="#596b62">highlighting</text>
</g>
<!-- ged_output&#45;&gt;ui -->
<g id="edge14" class="edge">
<title>ged_output&#45;&gt;ui</title>
<path fill="none" stroke="#396a50" stroke-width="2" d="M439.96,-135.75C439.96,-135.75 439.96,-86.78 439.96,-86.78"/>
<polygon fill="#396a50" stroke="#396a50" stroke-width="2" points="442.59,-86.78 439.96,-79.28 437.34,-86.78 442.59,-86.78"/>
</g>
<!-- gec -->
<g id="node5" class="node">
<title>gec</title>
<path fill="#f3eddd" stroke="#d67545" stroke-width="1.8" d="M663.05,-75.41C663.05,-75.41 536.88,-75.41 536.88,-75.41 530.88,-75.41 524.88,-69.41 524.88,-63.41 524.88,-63.41 524.88,-12 524.88,-12 524.88,-6 530.88,0 536.88,0 536.88,0 663.05,0 663.05,0 669.05,0 675.05,-6 675.05,-12 675.05,-12 675.05,-63.41 675.05,-63.41 675.05,-69.41 669.05,-75.41 663.05,-75.41"/>
<text xml:space="preserve" text-anchor="start" x="587.59" y="-47.93" font-family="Alexandria Variable" font-weight="bold" font-size="12.00" fill="#171a18">GEC</text>
<text xml:space="preserve" text-anchor="start" x="544.84" y="-20.08" font-family="Alexandria Variable" font-size="11.00" fill="#596b62">ranking &amp; correction</text>
</g>
<!-- ged_output&#45;&gt;gec -->
<g id="edge15" class="edge">
<title>ged_output&#45;&gt;gec</title>
<path fill="none" stroke="#396a50" stroke-width="2" d="M589.59,-135.75C589.59,-135.75 589.59,-86.78 589.59,-86.78"/>
<polygon fill="#396a50" stroke="#396a50" stroke-width="2" points="592.21,-86.78 589.59,-79.28 586.96,-86.78 592.21,-86.78"/>
</g>
<!-- boundary -->
<g id="node7" class="node">
<title>boundary</title>
<path fill="#dcefeb" stroke="#397785" stroke-width="1.8" d="M268.42,-736.23C268.42,-736.23 149.5,-736.23 149.5,-736.23 143.5,-736.23 137.5,-730.23 137.5,-724.23 137.5,-724.23 137.5,-712.23 137.5,-712.23 137.5,-706.23 143.5,-700.23 149.5,-700.23 149.5,-700.23 268.42,-700.23 268.42,-700.23 274.42,-700.23 280.42,-706.23 280.42,-712.23 280.42,-712.23 280.42,-724.23 280.42,-724.23 280.42,-730.23 274.42,-736.23 268.42,-736.23"/>
<text xml:space="preserve" text-anchor="middle" x="208.96" y="-714.33" font-family="Alexandria Variable" font-size="12.00" fill="#171a18">Word boundary split</text>
</g>
<!-- norm&#45;&gt;boundary -->
<g id="edge1" class="edge">
<title>norm&#45;&gt;boundary</title>
<path fill="none" stroke="#397785" stroke-width="2" d="M105.98,-718C105.98,-718 126.15,-718 126.15,-718"/>
<polygon fill="#397785" stroke="#397785" stroke-width="2" points="126.15,-720.63 133.65,-718 126.15,-715.38 126.15,-720.63"/>
</g>
<!-- segment -->
<g id="node8" class="node">
<title>segment</title>
<path fill="#dcefeb" stroke="#397785" stroke-width="1.8" d="M419.8,-736.23C419.8,-736.23 324.13,-736.23 324.13,-736.23 318.13,-736.23 312.13,-730.23 312.13,-724.23 312.13,-724.23 312.13,-712.23 312.13,-712.23 312.13,-706.23 318.13,-700.23 324.13,-700.23 324.13,-700.23 419.8,-700.23 419.8,-700.23 425.8,-700.23 431.8,-706.23 431.8,-712.23 431.8,-712.23 431.8,-724.23 431.8,-724.23 431.8,-730.23 425.8,-736.23 419.8,-736.23"/>
<text xml:space="preserve" text-anchor="middle" x="371.96" y="-714.33" font-family="Alexandria Variable" font-size="12.00" fill="#171a18">Segment tokens</text>
</g>
<!-- boundary&#45;&gt;segment -->
<g id="edge2" class="edge">
<title>boundary&#45;&gt;segment</title>
<path fill="none" stroke="#397785" stroke-width="2" d="M280.93,-718C280.93,-718 300.81,-718 300.81,-718"/>
<polygon fill="#397785" stroke="#397785" stroke-width="2" points="300.81,-720.63 308.31,-718 300.81,-715.38 300.81,-720.63"/>
</g>
<!-- morph -->
<g id="node9" class="node">
<title>morph</title>
<path fill="#dcefeb" stroke="#397785" stroke-width="1.8" d="M564.05,-736.23C564.05,-736.23 475.88,-736.23 475.88,-736.23 469.88,-736.23 463.88,-730.23 463.88,-724.23 463.88,-724.23 463.88,-712.23 463.88,-712.23 463.88,-706.23 469.88,-700.23 475.88,-700.23 475.88,-700.23 564.05,-700.23 564.05,-700.23 570.05,-700.23 576.05,-706.23 576.05,-712.23 576.05,-712.23 576.05,-724.23 576.05,-724.23 576.05,-730.23 570.05,-736.23 564.05,-736.23"/>
<text xml:space="preserve" text-anchor="middle" x="519.96" y="-714.33" font-family="Alexandria Variable" font-size="12.00" fill="#171a18">Morph analysis</text>
</g>
<!-- segment&#45;&gt;morph -->
<g id="edge3" class="edge">
<title>segment&#45;&gt;morph</title>
<path fill="none" stroke="#397785" stroke-width="2" d="M432.58,-718C432.58,-718 452.48,-718 452.48,-718"/>
<polygon fill="#397785" stroke="#397785" stroke-width="2" points="452.48,-720.63 459.98,-718 452.48,-715.38 452.48,-720.63"/>
</g>
<!-- morph&#45;&gt;ged_input -->
<g id="edge11" class="edge">
<title>morph&#45;&gt;ged_input</title>
<path fill="none" stroke="#397785" stroke-width="2" d="M519.96,-699.48C519.96,-699.48 519.96,-650.58 519.96,-650.58"/>
<polygon fill="#397785" stroke="#397785" stroke-width="2" points="522.59,-650.58 519.96,-643.08 517.34,-650.58 522.59,-650.58"/>
</g>
<!-- rule -->
<g id="node11" class="node">
<title>rule</title>
<path fill="#dff4e8" stroke="#519872" stroke-width="1.8" d="M415.42,-405.82C415.42,-405.82 302.5,-405.82 302.5,-405.82 296.5,-405.82 290.5,-399.82 290.5,-393.82 290.5,-393.82 290.5,-381.82 290.5,-381.82 290.5,-375.82 296.5,-369.82 302.5,-369.82 302.5,-369.82 415.42,-369.82 415.42,-369.82 421.42,-369.82 427.42,-375.82 427.42,-381.82 427.42,-381.82 427.42,-393.82 427.42,-393.82 427.42,-399.82 421.42,-405.82 415.42,-405.82"/>
<text xml:space="preserve" text-anchor="middle" x="358.96" y="-383.92" font-family="Alexandria Variable" font-size="12.00" fill="#171a18">RuleBasedDetector</text>
</g>
<!-- orchestrator&#45;&gt;rule -->
<g id="edge4" class="edge">
<title>orchestrator&#45;&gt;rule</title>
<path fill="none" stroke="#396a50" stroke-width="2" d="M448.88,-466.15C448.88,-438.02 448.88,-388 448.88,-388 448.88,-388 438.55,-388 438.55,-388"/>
<polygon fill="#396a50" stroke="#396a50" stroke-width="2" points="438.55,-385.38 431.05,-388 438.55,-390.63 438.55,-385.38"/>
</g>
<!-- lex -->
<g id="node12" class="node">
<title>lex</title>
<path fill="#dff4e8" stroke="#519872" stroke-width="1.8" d="M568.55,-405.82C568.55,-405.82 471.38,-405.82 471.38,-405.82 465.38,-405.82 459.38,-399.82 459.38,-393.82 459.38,-393.82 459.38,-381.82 459.38,-381.82 459.38,-375.82 465.38,-369.82 471.38,-369.82 471.38,-369.82 568.55,-369.82 568.55,-369.82 574.55,-369.82 580.55,-375.82 580.55,-381.82 580.55,-381.82 580.55,-393.82 580.55,-393.82 580.55,-399.82 574.55,-405.82 568.55,-405.82"/>
<text xml:space="preserve" text-anchor="middle" x="519.96" y="-383.92" font-family="Alexandria Variable" font-size="12.00" fill="#171a18">LexiconDetector</text>
</g>
<!-- orchestrator&#45;&gt;lex -->
<g id="edge5" class="edge">
<title>orchestrator&#45;&gt;lex</title>
<path fill="none" stroke="#396a50" stroke-width="2" d="M519.96,-466.12C519.96,-466.12 519.96,-416.99 519.96,-416.99"/>
<polygon fill="#396a50" stroke="#396a50" stroke-width="2" points="522.59,-416.99 519.96,-409.49 517.34,-416.99 522.59,-416.99"/>
</g>
<!-- ml -->
<g id="node13" class="node">
<title>ml</title>
<path fill="#dff4e8" stroke="#519872" stroke-width="1.8" d="M695.05,-405.82C695.05,-405.82 624.88,-405.82 624.88,-405.82 618.88,-405.82 612.88,-399.82 612.88,-393.82 612.88,-393.82 612.88,-381.82 612.88,-381.82 612.88,-375.82 618.88,-369.82 624.88,-369.82 624.88,-369.82 695.05,-369.82 695.05,-369.82 701.05,-369.82 707.05,-375.82 707.05,-381.82 707.05,-381.82 707.05,-393.82 707.05,-393.82 707.05,-399.82 701.05,-405.82 695.05,-405.82"/>
<text xml:space="preserve" text-anchor="middle" x="659.96" y="-383.92" font-family="Alexandria Variable" font-size="12.00" fill="#171a18">MLDetector</text>
</g>
<!-- orchestrator&#45;&gt;ml -->
<g id="edge6" class="edge">
<title>orchestrator&#45;&gt;ml</title>
<path fill="none" stroke="#396a50" stroke-width="2" d="M591.05,-466.15C591.05,-438.02 591.05,-388 591.05,-388 591.05,-388 601.57,-388 601.57,-388"/>
<polygon fill="#396a50" stroke="#396a50" stroke-width="2" points="601.57,-390.63 609.07,-388 601.57,-385.38 601.57,-390.63"/>
</g>
<!-- fuse -->
<g id="node14" class="node">
<title>fuse</title>
<path fill="#f6d6e4" stroke="#a13d63" stroke-width="1.8" d="M574.55,-308.82C574.55,-308.82 465.38,-308.82 465.38,-308.82 459.38,-308.82 453.38,-302.82 453.38,-296.82 453.38,-296.82 453.38,-284.82 453.38,-284.82 453.38,-278.82 459.38,-272.82 465.38,-272.82 465.38,-272.82 574.55,-272.82 574.55,-272.82 580.55,-272.82 586.55,-278.82 586.55,-284.82 586.55,-284.82 586.55,-296.82 586.55,-296.82 586.55,-302.82 580.55,-308.82 574.55,-308.82"/>
<text xml:space="preserve" text-anchor="middle" x="519.96" y="-286.92" font-family="Alexandria Variable" font-size="12.00" fill="#171a18">resolve_overlaps()</text>
</g>
<!-- rule&#45;&gt;fuse -->
<g id="edge7" class="edge">
<title>rule&#45;&gt;fuse</title>
<path fill="none" stroke="#396a50" stroke-width="2" d="M406.52,-369.15C406.52,-341.02 406.52,-291 406.52,-291 406.52,-291 442.13,-291 442.13,-291"/>
<polygon fill="#396a50" stroke="#396a50" stroke-width="2" points="442.13,-293.63 449.63,-291 442.13,-288.38 442.13,-293.63"/>
</g>
<!-- lex&#45;&gt;fuse -->
<g id="edge8" class="edge">
<title>lex&#45;&gt;fuse</title>
<path fill="none" stroke="#396a50" stroke-width="2" d="M519.96,-369.12C519.96,-369.12 519.96,-319.99 519.96,-319.99"/>
<polygon fill="#396a50" stroke="#396a50" stroke-width="2" points="522.59,-319.99 519.96,-312.49 517.34,-319.99 522.59,-319.99"/>
</g>
<!-- ml&#45;&gt;fuse -->
<g id="edge9" class="edge">
<title>ml&#45;&gt;fuse</title>
<path fill="none" stroke="#396a50" stroke-width="2" d="M633.59,-369.15C633.59,-341.02 633.59,-291 633.59,-291 633.59,-291 597.9,-291 597.9,-291"/>
<polygon fill="#396a50" stroke="#396a50" stroke-width="2" points="597.9,-288.38 590.4,-291 597.9,-293.63 597.9,-288.38"/>
</g>
<!-- fuse&#45;&gt;ged_output -->
<g id="edge13" class="edge">
<title>fuse&#45;&gt;ged_output</title>
<path fill="none" stroke="#396a50" stroke-width="2" d="M519.96,-272.07C519.96,-272.07 519.96,-223.17 519.96,-223.17"/>
<polygon fill="#396a50" stroke="#396a50" stroke-width="2" points="522.59,-223.17 519.96,-215.67 517.34,-223.17 522.59,-223.17"/>
</g>
</g>
</svg>
